G04 #@! TF.FileFunction,Legend,Bot*
%FSLAX46Y46*%
G04 Gerber Fmt 4.6, Leading zero omitted, Abs format (unit mm)*
G04 Created by KiCad (PCBNEW 4.0.0-rc1-stable) date mar 10 nov 2015 21:40:48 CET*
%MOMM*%
G01*
G04 APERTURE LIST*
%ADD10C,0.100000*%
%ADD11C,0.152400*%
%ADD12C,0.304800*%
%ADD13C,0.150000*%
G04 APERTURE END LIST*
D10*
D11*
X141267543Y-93224048D02*
X141303829Y-93193810D01*
X141340114Y-93103095D01*
X141340114Y-93042619D01*
X141303829Y-92951905D01*
X141231257Y-92891429D01*
X141158686Y-92861190D01*
X141013543Y-92830952D01*
X140904686Y-92830952D01*
X140759543Y-92861190D01*
X140686971Y-92891429D01*
X140614400Y-92951905D01*
X140578114Y-93042619D01*
X140578114Y-93103095D01*
X140614400Y-93193810D01*
X140650686Y-93224048D01*
X141340114Y-93586905D02*
X141303829Y-93526429D01*
X141267543Y-93496190D01*
X141194971Y-93465952D01*
X140977257Y-93465952D01*
X140904686Y-93496190D01*
X140868400Y-93526429D01*
X140832114Y-93586905D01*
X140832114Y-93677619D01*
X140868400Y-93738095D01*
X140904686Y-93768333D01*
X140977257Y-93798571D01*
X141194971Y-93798571D01*
X141267543Y-93768333D01*
X141303829Y-93738095D01*
X141340114Y-93677619D01*
X141340114Y-93586905D01*
X140832114Y-94070714D02*
X141594114Y-94070714D01*
X140868400Y-94070714D02*
X140832114Y-94131191D01*
X140832114Y-94252143D01*
X140868400Y-94312619D01*
X140904686Y-94342857D01*
X140977257Y-94373095D01*
X141194971Y-94373095D01*
X141267543Y-94342857D01*
X141303829Y-94312619D01*
X141340114Y-94252143D01*
X141340114Y-94131191D01*
X141303829Y-94070714D01*
X140832114Y-94584762D02*
X141340114Y-94735953D01*
X140832114Y-94887143D02*
X141340114Y-94735953D01*
X141521543Y-94675477D01*
X141557829Y-94645238D01*
X141594114Y-94584762D01*
X141340114Y-95129048D02*
X140832114Y-95129048D01*
X140977257Y-95129048D02*
X140904686Y-95159287D01*
X140868400Y-95189525D01*
X140832114Y-95250001D01*
X140832114Y-95310477D01*
X141340114Y-95522143D02*
X140832114Y-95522143D01*
X140578114Y-95522143D02*
X140614400Y-95491905D01*
X140650686Y-95522143D01*
X140614400Y-95552382D01*
X140578114Y-95522143D01*
X140650686Y-95522143D01*
X140832114Y-96096667D02*
X141448971Y-96096667D01*
X141521543Y-96066429D01*
X141557829Y-96036191D01*
X141594114Y-95975715D01*
X141594114Y-95885001D01*
X141557829Y-95824524D01*
X141303829Y-96096667D02*
X141340114Y-96036191D01*
X141340114Y-95915239D01*
X141303829Y-95854763D01*
X141267543Y-95824524D01*
X141194971Y-95794286D01*
X140977257Y-95794286D01*
X140904686Y-95824524D01*
X140868400Y-95854763D01*
X140832114Y-95915239D01*
X140832114Y-96036191D01*
X140868400Y-96096667D01*
X141340114Y-96399048D02*
X140578114Y-96399048D01*
X141340114Y-96671191D02*
X140940971Y-96671191D01*
X140868400Y-96640953D01*
X140832114Y-96580477D01*
X140832114Y-96489763D01*
X140868400Y-96429287D01*
X140904686Y-96399048D01*
X140832114Y-96882858D02*
X140832114Y-97124763D01*
X140578114Y-96973572D02*
X141231257Y-96973572D01*
X141303829Y-97003811D01*
X141340114Y-97064287D01*
X141340114Y-97124763D01*
X141630400Y-98001668D02*
X141594114Y-97971430D01*
X141485257Y-97910954D01*
X141412686Y-97880716D01*
X141303829Y-97850478D01*
X141122400Y-97820239D01*
X140977257Y-97820239D01*
X140795829Y-97850478D01*
X140686971Y-97880716D01*
X140614400Y-97910954D01*
X140505543Y-97971430D01*
X140469257Y-98001668D01*
X141267543Y-98606430D02*
X141303829Y-98576192D01*
X141340114Y-98485477D01*
X141340114Y-98425001D01*
X141303829Y-98334287D01*
X141231257Y-98273811D01*
X141158686Y-98243572D01*
X141013543Y-98213334D01*
X140904686Y-98213334D01*
X140759543Y-98243572D01*
X140686971Y-98273811D01*
X140614400Y-98334287D01*
X140578114Y-98425001D01*
X140578114Y-98485477D01*
X140614400Y-98576192D01*
X140650686Y-98606430D01*
X141630400Y-98818096D02*
X141594114Y-98848334D01*
X141485257Y-98908811D01*
X141412686Y-98939049D01*
X141303829Y-98969287D01*
X141122400Y-98999525D01*
X140977257Y-98999525D01*
X140795829Y-98969287D01*
X140686971Y-98939049D01*
X140614400Y-98908811D01*
X140505543Y-98848334D01*
X140469257Y-98818096D01*
X140650686Y-99755477D02*
X140614400Y-99785715D01*
X140578114Y-99846192D01*
X140578114Y-99997382D01*
X140614400Y-100057858D01*
X140650686Y-100088096D01*
X140723257Y-100118335D01*
X140795829Y-100118335D01*
X140904686Y-100088096D01*
X141340114Y-99725239D01*
X141340114Y-100118335D01*
X140578114Y-100511430D02*
X140578114Y-100571906D01*
X140614400Y-100632382D01*
X140650686Y-100662620D01*
X140723257Y-100692858D01*
X140868400Y-100723097D01*
X141049829Y-100723097D01*
X141194971Y-100692858D01*
X141267543Y-100662620D01*
X141303829Y-100632382D01*
X141340114Y-100571906D01*
X141340114Y-100511430D01*
X141303829Y-100450954D01*
X141267543Y-100420716D01*
X141194971Y-100390477D01*
X141049829Y-100360239D01*
X140868400Y-100360239D01*
X140723257Y-100390477D01*
X140650686Y-100420716D01*
X140614400Y-100450954D01*
X140578114Y-100511430D01*
X141340114Y-101327859D02*
X141340114Y-100965001D01*
X141340114Y-101146430D02*
X140578114Y-101146430D01*
X140686971Y-101085954D01*
X140759543Y-101025478D01*
X140795829Y-100965001D01*
X140578114Y-101902382D02*
X140578114Y-101600001D01*
X140940971Y-101569763D01*
X140904686Y-101600001D01*
X140868400Y-101660478D01*
X140868400Y-101811668D01*
X140904686Y-101872144D01*
X140940971Y-101902382D01*
X141013543Y-101932621D01*
X141194971Y-101932621D01*
X141267543Y-101902382D01*
X141303829Y-101872144D01*
X141340114Y-101811668D01*
X141340114Y-101660478D01*
X141303829Y-101600001D01*
X141267543Y-101569763D01*
X141340114Y-102688573D02*
X140578114Y-102688573D01*
X141049829Y-102749050D02*
X141340114Y-102930478D01*
X140832114Y-102930478D02*
X141122400Y-102688573D01*
X140832114Y-103142145D02*
X141340114Y-103263098D01*
X140977257Y-103384050D01*
X141340114Y-103505002D01*
X140832114Y-103625955D01*
X141303829Y-104109764D02*
X141340114Y-104049288D01*
X141340114Y-103928336D01*
X141303829Y-103867859D01*
X141231257Y-103837621D01*
X140940971Y-103837621D01*
X140868400Y-103867859D01*
X140832114Y-103928336D01*
X140832114Y-104049288D01*
X140868400Y-104109764D01*
X140940971Y-104140002D01*
X141013543Y-104140002D01*
X141086114Y-103837621D01*
X140832114Y-104412145D02*
X141340114Y-104412145D01*
X140904686Y-104412145D02*
X140868400Y-104442384D01*
X140832114Y-104502860D01*
X140832114Y-104593574D01*
X140868400Y-104654050D01*
X140940971Y-104684288D01*
X141340114Y-104684288D01*
X141340114Y-105258812D02*
X140578114Y-105258812D01*
X141303829Y-105258812D02*
X141340114Y-105198336D01*
X141340114Y-105077384D01*
X141303829Y-105016908D01*
X141267543Y-104986669D01*
X141194971Y-104956431D01*
X140977257Y-104956431D01*
X140904686Y-104986669D01*
X140868400Y-105016908D01*
X140832114Y-105077384D01*
X140832114Y-105198336D01*
X140868400Y-105258812D01*
X141303829Y-105803098D02*
X141340114Y-105742622D01*
X141340114Y-105621670D01*
X141303829Y-105561193D01*
X141231257Y-105530955D01*
X140940971Y-105530955D01*
X140868400Y-105561193D01*
X140832114Y-105621670D01*
X140832114Y-105742622D01*
X140868400Y-105803098D01*
X140940971Y-105833336D01*
X141013543Y-105833336D01*
X141086114Y-105530955D01*
X140832114Y-106105479D02*
X141340114Y-106105479D01*
X140904686Y-106105479D02*
X140868400Y-106135718D01*
X140832114Y-106196194D01*
X140832114Y-106286908D01*
X140868400Y-106347384D01*
X140940971Y-106377622D01*
X141340114Y-106377622D01*
X141340114Y-106952146D02*
X140940971Y-106952146D01*
X140868400Y-106921908D01*
X140832114Y-106861432D01*
X140832114Y-106740480D01*
X140868400Y-106680003D01*
X141303829Y-106952146D02*
X141340114Y-106891670D01*
X141340114Y-106740480D01*
X141303829Y-106680003D01*
X141231257Y-106649765D01*
X141158686Y-106649765D01*
X141086114Y-106680003D01*
X141049829Y-106740480D01*
X141049829Y-106891670D01*
X141013543Y-106952146D01*
X141340114Y-107254527D02*
X140832114Y-107254527D01*
X140977257Y-107254527D02*
X140904686Y-107284766D01*
X140868400Y-107315004D01*
X140832114Y-107375480D01*
X140832114Y-107435956D01*
X141340114Y-107647622D02*
X140832114Y-107647622D01*
X140904686Y-107647622D02*
X140868400Y-107677861D01*
X140832114Y-107738337D01*
X140832114Y-107829051D01*
X140868400Y-107889527D01*
X140940971Y-107919765D01*
X141340114Y-107919765D01*
X140940971Y-107919765D02*
X140868400Y-107950003D01*
X140832114Y-108010480D01*
X140832114Y-108101194D01*
X140868400Y-108161670D01*
X140940971Y-108191908D01*
X141340114Y-108191908D01*
X141340114Y-108585004D02*
X141303829Y-108524528D01*
X141267543Y-108494289D01*
X141194971Y-108464051D01*
X140977257Y-108464051D01*
X140904686Y-108494289D01*
X140868400Y-108524528D01*
X140832114Y-108585004D01*
X140832114Y-108675718D01*
X140868400Y-108736194D01*
X140904686Y-108766432D01*
X140977257Y-108796670D01*
X141194971Y-108796670D01*
X141267543Y-108766432D01*
X141303829Y-108736194D01*
X141340114Y-108675718D01*
X141340114Y-108585004D01*
X142559314Y-92861190D02*
X141797314Y-92861190D01*
X142559314Y-93133333D02*
X142160171Y-93133333D01*
X142087600Y-93103095D01*
X142051314Y-93042619D01*
X142051314Y-92951905D01*
X142087600Y-92891429D01*
X142123886Y-92861190D01*
X142051314Y-93345000D02*
X142051314Y-93586905D01*
X141797314Y-93435714D02*
X142450457Y-93435714D01*
X142523029Y-93465953D01*
X142559314Y-93526429D01*
X142559314Y-93586905D01*
X142051314Y-93707857D02*
X142051314Y-93949762D01*
X141797314Y-93798571D02*
X142450457Y-93798571D01*
X142523029Y-93828810D01*
X142559314Y-93889286D01*
X142559314Y-93949762D01*
X142051314Y-94161428D02*
X142813314Y-94161428D01*
X142087600Y-94161428D02*
X142051314Y-94221905D01*
X142051314Y-94342857D01*
X142087600Y-94403333D01*
X142123886Y-94433571D01*
X142196457Y-94463809D01*
X142414171Y-94463809D01*
X142486743Y-94433571D01*
X142523029Y-94403333D01*
X142559314Y-94342857D01*
X142559314Y-94221905D01*
X142523029Y-94161428D01*
X142523029Y-94705714D02*
X142559314Y-94766191D01*
X142559314Y-94887143D01*
X142523029Y-94947619D01*
X142450457Y-94977857D01*
X142414171Y-94977857D01*
X142341600Y-94947619D01*
X142305314Y-94887143D01*
X142305314Y-94796429D01*
X142269029Y-94735952D01*
X142196457Y-94705714D01*
X142160171Y-94705714D01*
X142087600Y-94735952D01*
X142051314Y-94796429D01*
X142051314Y-94887143D01*
X142087600Y-94947619D01*
X142486743Y-95250000D02*
X142523029Y-95280239D01*
X142559314Y-95250000D01*
X142523029Y-95219762D01*
X142486743Y-95250000D01*
X142559314Y-95250000D01*
X142087600Y-95250000D02*
X142123886Y-95280239D01*
X142160171Y-95250000D01*
X142123886Y-95219762D01*
X142087600Y-95250000D01*
X142160171Y-95250000D01*
X141761029Y-96005953D02*
X142740743Y-95461667D01*
X141761029Y-96671191D02*
X142740743Y-96126905D01*
X142051314Y-97155000D02*
X142668171Y-97155000D01*
X142740743Y-97124762D01*
X142777029Y-97094524D01*
X142813314Y-97034048D01*
X142813314Y-96943334D01*
X142777029Y-96882857D01*
X142523029Y-97155000D02*
X142559314Y-97094524D01*
X142559314Y-96973572D01*
X142523029Y-96913096D01*
X142486743Y-96882857D01*
X142414171Y-96852619D01*
X142196457Y-96852619D01*
X142123886Y-96882857D01*
X142087600Y-96913096D01*
X142051314Y-96973572D01*
X142051314Y-97094524D01*
X142087600Y-97155000D01*
X142559314Y-97457381D02*
X142051314Y-97457381D01*
X141797314Y-97457381D02*
X141833600Y-97427143D01*
X141869886Y-97457381D01*
X141833600Y-97487620D01*
X141797314Y-97457381D01*
X141869886Y-97457381D01*
X142051314Y-97669048D02*
X142051314Y-97910953D01*
X141797314Y-97759762D02*
X142450457Y-97759762D01*
X142523029Y-97790001D01*
X142559314Y-97850477D01*
X142559314Y-97910953D01*
X142559314Y-98122619D02*
X141797314Y-98122619D01*
X142559314Y-98394762D02*
X142160171Y-98394762D01*
X142087600Y-98364524D01*
X142051314Y-98304048D01*
X142051314Y-98213334D01*
X142087600Y-98152858D01*
X142123886Y-98122619D01*
X142051314Y-98969286D02*
X142559314Y-98969286D01*
X142051314Y-98697143D02*
X142450457Y-98697143D01*
X142523029Y-98727382D01*
X142559314Y-98787858D01*
X142559314Y-98878572D01*
X142523029Y-98939048D01*
X142486743Y-98969286D01*
X142559314Y-99271667D02*
X141797314Y-99271667D01*
X142087600Y-99271667D02*
X142051314Y-99332144D01*
X142051314Y-99453096D01*
X142087600Y-99513572D01*
X142123886Y-99543810D01*
X142196457Y-99574048D01*
X142414171Y-99574048D01*
X142486743Y-99543810D01*
X142523029Y-99513572D01*
X142559314Y-99453096D01*
X142559314Y-99332144D01*
X142523029Y-99271667D01*
X142486743Y-99846191D02*
X142523029Y-99876430D01*
X142559314Y-99846191D01*
X142523029Y-99815953D01*
X142486743Y-99846191D01*
X142559314Y-99846191D01*
X142523029Y-100420715D02*
X142559314Y-100360239D01*
X142559314Y-100239287D01*
X142523029Y-100178811D01*
X142486743Y-100148572D01*
X142414171Y-100118334D01*
X142196457Y-100118334D01*
X142123886Y-100148572D01*
X142087600Y-100178811D01*
X142051314Y-100239287D01*
X142051314Y-100360239D01*
X142087600Y-100420715D01*
X142559314Y-100783573D02*
X142523029Y-100723097D01*
X142486743Y-100692858D01*
X142414171Y-100662620D01*
X142196457Y-100662620D01*
X142123886Y-100692858D01*
X142087600Y-100723097D01*
X142051314Y-100783573D01*
X142051314Y-100874287D01*
X142087600Y-100934763D01*
X142123886Y-100965001D01*
X142196457Y-100995239D01*
X142414171Y-100995239D01*
X142486743Y-100965001D01*
X142523029Y-100934763D01*
X142559314Y-100874287D01*
X142559314Y-100783573D01*
X142559314Y-101267382D02*
X142051314Y-101267382D01*
X142123886Y-101267382D02*
X142087600Y-101297621D01*
X142051314Y-101358097D01*
X142051314Y-101448811D01*
X142087600Y-101509287D01*
X142160171Y-101539525D01*
X142559314Y-101539525D01*
X142160171Y-101539525D02*
X142087600Y-101569763D01*
X142051314Y-101630240D01*
X142051314Y-101720954D01*
X142087600Y-101781430D01*
X142160171Y-101811668D01*
X142559314Y-101811668D01*
X141761029Y-102567621D02*
X142740743Y-102023335D01*
X142559314Y-103051430D02*
X142160171Y-103051430D01*
X142087600Y-103021192D01*
X142051314Y-102960716D01*
X142051314Y-102839764D01*
X142087600Y-102779287D01*
X142523029Y-103051430D02*
X142559314Y-102990954D01*
X142559314Y-102839764D01*
X142523029Y-102779287D01*
X142450457Y-102749049D01*
X142377886Y-102749049D01*
X142305314Y-102779287D01*
X142269029Y-102839764D01*
X142269029Y-102990954D01*
X142232743Y-103051430D01*
X142559314Y-103353811D02*
X141797314Y-103353811D01*
X142269029Y-103414288D02*
X142559314Y-103595716D01*
X142051314Y-103595716D02*
X142341600Y-103353811D01*
X142559314Y-103958574D02*
X142523029Y-103898098D01*
X142486743Y-103867859D01*
X142414171Y-103837621D01*
X142196457Y-103837621D01*
X142123886Y-103867859D01*
X142087600Y-103898098D01*
X142051314Y-103958574D01*
X142051314Y-104049288D01*
X142087600Y-104109764D01*
X142123886Y-104140002D01*
X142196457Y-104170240D01*
X142414171Y-104170240D01*
X142486743Y-104140002D01*
X142523029Y-104109764D01*
X142559314Y-104049288D01*
X142559314Y-103958574D01*
X142559314Y-104442383D02*
X142051314Y-104442383D01*
X142196457Y-104442383D02*
X142123886Y-104472622D01*
X142087600Y-104502860D01*
X142051314Y-104563336D01*
X142051314Y-104623812D01*
X142051314Y-104835478D02*
X142559314Y-104835478D01*
X142123886Y-104835478D02*
X142087600Y-104865717D01*
X142051314Y-104926193D01*
X142051314Y-105016907D01*
X142087600Y-105077383D01*
X142160171Y-105107621D01*
X142559314Y-105107621D01*
X142523029Y-105379764D02*
X142559314Y-105440241D01*
X142559314Y-105561193D01*
X142523029Y-105621669D01*
X142450457Y-105651907D01*
X142414171Y-105651907D01*
X142341600Y-105621669D01*
X142305314Y-105561193D01*
X142305314Y-105470479D01*
X142269029Y-105410002D01*
X142196457Y-105379764D01*
X142160171Y-105379764D01*
X142087600Y-105410002D01*
X142051314Y-105470479D01*
X142051314Y-105561193D01*
X142087600Y-105621669D01*
X142051314Y-105863574D02*
X142559314Y-106014765D01*
X142051314Y-106165955D02*
X142559314Y-106014765D01*
X142740743Y-105954289D01*
X142777029Y-105924050D01*
X142813314Y-105863574D01*
X142523029Y-106377622D02*
X142559314Y-106438099D01*
X142559314Y-106559051D01*
X142523029Y-106619527D01*
X142450457Y-106649765D01*
X142414171Y-106649765D01*
X142341600Y-106619527D01*
X142305314Y-106559051D01*
X142305314Y-106468337D01*
X142269029Y-106407860D01*
X142196457Y-106377622D01*
X142160171Y-106377622D01*
X142087600Y-106407860D01*
X142051314Y-106468337D01*
X142051314Y-106559051D01*
X142087600Y-106619527D01*
X142269029Y-106921908D02*
X142269029Y-107405718D01*
X142559314Y-107708098D02*
X142051314Y-107708098D01*
X142196457Y-107708098D02*
X142123886Y-107738337D01*
X142087600Y-107768575D01*
X142051314Y-107829051D01*
X142051314Y-107889527D01*
X142559314Y-108373336D02*
X141797314Y-108373336D01*
X142523029Y-108373336D02*
X142559314Y-108312860D01*
X142559314Y-108191908D01*
X142523029Y-108131432D01*
X142486743Y-108101193D01*
X142414171Y-108070955D01*
X142196457Y-108070955D01*
X142123886Y-108101193D01*
X142087600Y-108131432D01*
X142051314Y-108191908D01*
X142051314Y-108312860D01*
X142087600Y-108373336D01*
X142559314Y-108675717D02*
X142051314Y-108675717D01*
X141797314Y-108675717D02*
X141833600Y-108645479D01*
X141869886Y-108675717D01*
X141833600Y-108705956D01*
X141797314Y-108675717D01*
X141869886Y-108675717D01*
X141761029Y-109431670D02*
X142740743Y-108887384D01*
X142523029Y-109885241D02*
X142559314Y-109824765D01*
X142559314Y-109703813D01*
X142523029Y-109643336D01*
X142450457Y-109613098D01*
X142160171Y-109613098D01*
X142087600Y-109643336D01*
X142051314Y-109703813D01*
X142051314Y-109824765D01*
X142087600Y-109885241D01*
X142160171Y-109915479D01*
X142232743Y-109915479D01*
X142305314Y-109613098D01*
X142559314Y-110127146D02*
X142051314Y-110459765D01*
X142051314Y-110127146D02*
X142559314Y-110459765D01*
X142559314Y-110973813D02*
X142160171Y-110973813D01*
X142087600Y-110943575D01*
X142051314Y-110883099D01*
X142051314Y-110762147D01*
X142087600Y-110701670D01*
X142523029Y-110973813D02*
X142559314Y-110913337D01*
X142559314Y-110762147D01*
X142523029Y-110701670D01*
X142450457Y-110671432D01*
X142377886Y-110671432D01*
X142305314Y-110701670D01*
X142269029Y-110762147D01*
X142269029Y-110913337D01*
X142232743Y-110973813D01*
X142559314Y-111276194D02*
X142051314Y-111276194D01*
X142123886Y-111276194D02*
X142087600Y-111306433D01*
X142051314Y-111366909D01*
X142051314Y-111457623D01*
X142087600Y-111518099D01*
X142160171Y-111548337D01*
X142559314Y-111548337D01*
X142160171Y-111548337D02*
X142087600Y-111578575D01*
X142051314Y-111639052D01*
X142051314Y-111729766D01*
X142087600Y-111790242D01*
X142160171Y-111820480D01*
X142559314Y-111820480D01*
X142051314Y-112122861D02*
X142813314Y-112122861D01*
X142087600Y-112122861D02*
X142051314Y-112183338D01*
X142051314Y-112304290D01*
X142087600Y-112364766D01*
X142123886Y-112395004D01*
X142196457Y-112425242D01*
X142414171Y-112425242D01*
X142486743Y-112395004D01*
X142523029Y-112364766D01*
X142559314Y-112304290D01*
X142559314Y-112183338D01*
X142523029Y-112122861D01*
X142523029Y-112969528D02*
X142559314Y-112909052D01*
X142559314Y-112788100D01*
X142523029Y-112727624D01*
X142486743Y-112697385D01*
X142414171Y-112667147D01*
X142196457Y-112667147D01*
X142123886Y-112697385D01*
X142087600Y-112727624D01*
X142051314Y-112788100D01*
X142051314Y-112909052D01*
X142087600Y-112969528D01*
X142559314Y-113241671D02*
X141797314Y-113241671D01*
X142087600Y-113241671D02*
X142051314Y-113302148D01*
X142051314Y-113423100D01*
X142087600Y-113483576D01*
X142123886Y-113513814D01*
X142196457Y-113544052D01*
X142414171Y-113544052D01*
X142486743Y-113513814D01*
X142523029Y-113483576D01*
X142559314Y-113423100D01*
X142559314Y-113302148D01*
X142523029Y-113241671D01*
X142269029Y-113816195D02*
X142269029Y-114300005D01*
X142559314Y-114693100D02*
X142523029Y-114632624D01*
X142450457Y-114602385D01*
X141797314Y-114602385D01*
X142523029Y-115176909D02*
X142559314Y-115116433D01*
X142559314Y-114995481D01*
X142523029Y-114935004D01*
X142450457Y-114904766D01*
X142160171Y-114904766D01*
X142087600Y-114935004D01*
X142051314Y-114995481D01*
X142051314Y-115116433D01*
X142087600Y-115176909D01*
X142160171Y-115207147D01*
X142232743Y-115207147D01*
X142305314Y-114904766D01*
X142559314Y-115751433D02*
X141797314Y-115751433D01*
X142523029Y-115751433D02*
X142559314Y-115690957D01*
X142559314Y-115570005D01*
X142523029Y-115509529D01*
X142486743Y-115479290D01*
X142414171Y-115449052D01*
X142196457Y-115449052D01*
X142123886Y-115479290D01*
X142087600Y-115509529D01*
X142051314Y-115570005D01*
X142051314Y-115690957D01*
X142087600Y-115751433D01*
D12*
X149569714Y-85910057D02*
X149061714Y-85910057D01*
X148844000Y-86974438D02*
X149569714Y-86974438D01*
X149569714Y-84942438D01*
X148844000Y-84942438D01*
X148336000Y-86974438D02*
X147537714Y-85619771D01*
X148336000Y-85619771D02*
X147537714Y-86974438D01*
X146304000Y-86974438D02*
X146304000Y-85910057D01*
X146376571Y-85716533D01*
X146521714Y-85619771D01*
X146812000Y-85619771D01*
X146957143Y-85716533D01*
X146304000Y-86877676D02*
X146449143Y-86974438D01*
X146812000Y-86974438D01*
X146957143Y-86877676D01*
X147029714Y-86684152D01*
X147029714Y-86490629D01*
X146957143Y-86297105D01*
X146812000Y-86200343D01*
X146449143Y-86200343D01*
X146304000Y-86103581D01*
X145578286Y-86974438D02*
X145578286Y-85619771D01*
X145578286Y-85813295D02*
X145505714Y-85716533D01*
X145360572Y-85619771D01*
X145142857Y-85619771D01*
X144997714Y-85716533D01*
X144925143Y-85910057D01*
X144925143Y-86974438D01*
X144925143Y-85910057D02*
X144852572Y-85716533D01*
X144707429Y-85619771D01*
X144489714Y-85619771D01*
X144344572Y-85716533D01*
X144272000Y-85910057D01*
X144272000Y-86974438D01*
X143546286Y-85619771D02*
X143546286Y-87651771D01*
X143546286Y-85716533D02*
X143401143Y-85619771D01*
X143110857Y-85619771D01*
X142965714Y-85716533D01*
X142893143Y-85813295D01*
X142820572Y-86006819D01*
X142820572Y-86587390D01*
X142893143Y-86780914D01*
X142965714Y-86877676D01*
X143110857Y-86974438D01*
X143401143Y-86974438D01*
X143546286Y-86877676D01*
X141514286Y-86877676D02*
X141659429Y-86974438D01*
X141949715Y-86974438D01*
X142094857Y-86877676D01*
X142167429Y-86780914D01*
X142240000Y-86587390D01*
X142240000Y-86006819D01*
X142167429Y-85813295D01*
X142094857Y-85716533D01*
X141949715Y-85619771D01*
X141659429Y-85619771D01*
X141514286Y-85716533D01*
X140861143Y-86974438D02*
X140861143Y-84942438D01*
X140861143Y-85716533D02*
X140716000Y-85619771D01*
X140425714Y-85619771D01*
X140280571Y-85716533D01*
X140208000Y-85813295D01*
X140135429Y-86006819D01*
X140135429Y-86587390D01*
X140208000Y-86780914D01*
X140280571Y-86877676D01*
X140425714Y-86974438D01*
X140716000Y-86974438D01*
X140861143Y-86877676D01*
X137595429Y-86974438D02*
X138321143Y-86974438D01*
X138321143Y-84942438D01*
X137087429Y-85910057D02*
X136579429Y-85910057D01*
X136361715Y-86974438D02*
X137087429Y-86974438D01*
X137087429Y-84942438D01*
X136361715Y-84942438D01*
X135708572Y-86974438D02*
X135708572Y-84942438D01*
X135345715Y-84942438D01*
X135128000Y-85039200D01*
X134982858Y-85232724D01*
X134910286Y-85426248D01*
X134837715Y-85813295D01*
X134837715Y-86103581D01*
X134910286Y-86490629D01*
X134982858Y-86684152D01*
X135128000Y-86877676D01*
X135345715Y-86974438D01*
X135708572Y-86974438D01*
X144417143Y-88769371D02*
X144054286Y-90124038D01*
X143691428Y-88769371D01*
X142312571Y-90124038D02*
X143183428Y-90124038D01*
X142748000Y-90124038D02*
X142748000Y-88092038D01*
X142893143Y-88382324D01*
X143038285Y-88575848D01*
X143183428Y-88672610D01*
X141659428Y-89930514D02*
X141586856Y-90027276D01*
X141659428Y-90124038D01*
X141731999Y-90027276D01*
X141659428Y-89930514D01*
X141659428Y-90124038D01*
X140643428Y-88092038D02*
X140498285Y-88092038D01*
X140353142Y-88188800D01*
X140280571Y-88285562D01*
X140208000Y-88479086D01*
X140135428Y-88866133D01*
X140135428Y-89349943D01*
X140208000Y-89736990D01*
X140280571Y-89930514D01*
X140353142Y-90027276D01*
X140498285Y-90124038D01*
X140643428Y-90124038D01*
X140788571Y-90027276D01*
X140861142Y-89930514D01*
X140933714Y-89736990D01*
X141006285Y-89349943D01*
X141006285Y-88866133D01*
X140933714Y-88479086D01*
X140861142Y-88285562D01*
X140788571Y-88188800D01*
X140643428Y-88092038D01*
D11*
X136895114Y-93224048D02*
X136532257Y-93012381D01*
X136895114Y-92861190D02*
X136133114Y-92861190D01*
X136133114Y-93103095D01*
X136169400Y-93163571D01*
X136205686Y-93193810D01*
X136278257Y-93224048D01*
X136387114Y-93224048D01*
X136459686Y-93193810D01*
X136495971Y-93163571D01*
X136532257Y-93103095D01*
X136532257Y-92861190D01*
X136858829Y-93738095D02*
X136895114Y-93677619D01*
X136895114Y-93556667D01*
X136858829Y-93496190D01*
X136786257Y-93465952D01*
X136495971Y-93465952D01*
X136423400Y-93496190D01*
X136387114Y-93556667D01*
X136387114Y-93677619D01*
X136423400Y-93738095D01*
X136495971Y-93768333D01*
X136568543Y-93768333D01*
X136641114Y-93465952D01*
X136895114Y-94131191D02*
X136858829Y-94070715D01*
X136786257Y-94040476D01*
X136133114Y-94040476D01*
X136858829Y-94615000D02*
X136895114Y-94554524D01*
X136895114Y-94433572D01*
X136858829Y-94373095D01*
X136786257Y-94342857D01*
X136495971Y-94342857D01*
X136423400Y-94373095D01*
X136387114Y-94433572D01*
X136387114Y-94554524D01*
X136423400Y-94615000D01*
X136495971Y-94645238D01*
X136568543Y-94645238D01*
X136641114Y-94342857D01*
X136895114Y-95189524D02*
X136495971Y-95189524D01*
X136423400Y-95159286D01*
X136387114Y-95098810D01*
X136387114Y-94977858D01*
X136423400Y-94917381D01*
X136858829Y-95189524D02*
X136895114Y-95129048D01*
X136895114Y-94977858D01*
X136858829Y-94917381D01*
X136786257Y-94887143D01*
X136713686Y-94887143D01*
X136641114Y-94917381D01*
X136604829Y-94977858D01*
X136604829Y-95129048D01*
X136568543Y-95189524D01*
X136858829Y-95461667D02*
X136895114Y-95522144D01*
X136895114Y-95643096D01*
X136858829Y-95703572D01*
X136786257Y-95733810D01*
X136749971Y-95733810D01*
X136677400Y-95703572D01*
X136641114Y-95643096D01*
X136641114Y-95552382D01*
X136604829Y-95491905D01*
X136532257Y-95461667D01*
X136495971Y-95461667D01*
X136423400Y-95491905D01*
X136387114Y-95552382D01*
X136387114Y-95643096D01*
X136423400Y-95703572D01*
X136858829Y-96247858D02*
X136895114Y-96187382D01*
X136895114Y-96066430D01*
X136858829Y-96005953D01*
X136786257Y-95975715D01*
X136495971Y-95975715D01*
X136423400Y-96005953D01*
X136387114Y-96066430D01*
X136387114Y-96187382D01*
X136423400Y-96247858D01*
X136495971Y-96278096D01*
X136568543Y-96278096D01*
X136641114Y-95975715D01*
X136895114Y-96822382D02*
X136133114Y-96822382D01*
X136858829Y-96822382D02*
X136895114Y-96761906D01*
X136895114Y-96640954D01*
X136858829Y-96580478D01*
X136822543Y-96550239D01*
X136749971Y-96520001D01*
X136532257Y-96520001D01*
X136459686Y-96550239D01*
X136423400Y-96580478D01*
X136387114Y-96640954D01*
X136387114Y-96761906D01*
X136423400Y-96822382D01*
X136387114Y-97880716D02*
X136895114Y-97880716D01*
X136387114Y-97608573D02*
X136786257Y-97608573D01*
X136858829Y-97638812D01*
X136895114Y-97699288D01*
X136895114Y-97790002D01*
X136858829Y-97850478D01*
X136822543Y-97880716D01*
X136387114Y-98183097D02*
X136895114Y-98183097D01*
X136459686Y-98183097D02*
X136423400Y-98213336D01*
X136387114Y-98273812D01*
X136387114Y-98364526D01*
X136423400Y-98425002D01*
X136495971Y-98455240D01*
X136895114Y-98455240D01*
X136895114Y-99029764D02*
X136133114Y-99029764D01*
X136858829Y-99029764D02*
X136895114Y-98969288D01*
X136895114Y-98848336D01*
X136858829Y-98787860D01*
X136822543Y-98757621D01*
X136749971Y-98727383D01*
X136532257Y-98727383D01*
X136459686Y-98757621D01*
X136423400Y-98787860D01*
X136387114Y-98848336D01*
X136387114Y-98969288D01*
X136423400Y-99029764D01*
X136858829Y-99574050D02*
X136895114Y-99513574D01*
X136895114Y-99392622D01*
X136858829Y-99332145D01*
X136786257Y-99301907D01*
X136495971Y-99301907D01*
X136423400Y-99332145D01*
X136387114Y-99392622D01*
X136387114Y-99513574D01*
X136423400Y-99574050D01*
X136495971Y-99604288D01*
X136568543Y-99604288D01*
X136641114Y-99301907D01*
X136895114Y-99876431D02*
X136387114Y-99876431D01*
X136532257Y-99876431D02*
X136459686Y-99906670D01*
X136423400Y-99936908D01*
X136387114Y-99997384D01*
X136387114Y-100057860D01*
X136169400Y-101085956D02*
X136133114Y-101025479D01*
X136133114Y-100934765D01*
X136169400Y-100844051D01*
X136241971Y-100783575D01*
X136314543Y-100753336D01*
X136459686Y-100723098D01*
X136568543Y-100723098D01*
X136713686Y-100753336D01*
X136786257Y-100783575D01*
X136858829Y-100844051D01*
X136895114Y-100934765D01*
X136895114Y-100995241D01*
X136858829Y-101085956D01*
X136822543Y-101116194D01*
X136568543Y-101116194D01*
X136568543Y-100995241D01*
X136895114Y-101388336D02*
X136133114Y-101388336D01*
X136895114Y-101751194D01*
X136133114Y-101751194D01*
X136133114Y-102053574D02*
X136749971Y-102053574D01*
X136822543Y-102083813D01*
X136858829Y-102114051D01*
X136895114Y-102174527D01*
X136895114Y-102295479D01*
X136858829Y-102355955D01*
X136822543Y-102386194D01*
X136749971Y-102416432D01*
X136133114Y-102416432D01*
X136096829Y-103172384D02*
X137076543Y-102628098D01*
X136169400Y-103716670D02*
X136133114Y-103656193D01*
X136133114Y-103565479D01*
X136169400Y-103474765D01*
X136241971Y-103414289D01*
X136314543Y-103384050D01*
X136459686Y-103353812D01*
X136568543Y-103353812D01*
X136713686Y-103384050D01*
X136786257Y-103414289D01*
X136858829Y-103474765D01*
X136895114Y-103565479D01*
X136895114Y-103625955D01*
X136858829Y-103716670D01*
X136822543Y-103746908D01*
X136568543Y-103746908D01*
X136568543Y-103625955D01*
X136895114Y-104019050D02*
X136133114Y-104019050D01*
X136133114Y-104260955D01*
X136169400Y-104321431D01*
X136205686Y-104351670D01*
X136278257Y-104381908D01*
X136387114Y-104381908D01*
X136459686Y-104351670D01*
X136495971Y-104321431D01*
X136532257Y-104260955D01*
X136532257Y-104019050D01*
X136895114Y-104956431D02*
X136895114Y-104654050D01*
X136133114Y-104654050D01*
X136133114Y-105591432D02*
X136133114Y-105984528D01*
X136423400Y-105772861D01*
X136423400Y-105863575D01*
X136459686Y-105924051D01*
X136495971Y-105954289D01*
X136568543Y-105984528D01*
X136749971Y-105984528D01*
X136822543Y-105954289D01*
X136858829Y-105924051D01*
X136895114Y-105863575D01*
X136895114Y-105682147D01*
X136858829Y-105621670D01*
X136822543Y-105591432D01*
X136895114Y-107042861D02*
X136895114Y-106740480D01*
X136133114Y-106740480D01*
X136895114Y-107254528D02*
X136387114Y-107254528D01*
X136133114Y-107254528D02*
X136169400Y-107224290D01*
X136205686Y-107254528D01*
X136169400Y-107284767D01*
X136133114Y-107254528D01*
X136205686Y-107254528D01*
X136858829Y-107829052D02*
X136895114Y-107768576D01*
X136895114Y-107647624D01*
X136858829Y-107587148D01*
X136822543Y-107556909D01*
X136749971Y-107526671D01*
X136532257Y-107526671D01*
X136459686Y-107556909D01*
X136423400Y-107587148D01*
X136387114Y-107647624D01*
X136387114Y-107768576D01*
X136423400Y-107829052D01*
X136858829Y-108343100D02*
X136895114Y-108282624D01*
X136895114Y-108161672D01*
X136858829Y-108101195D01*
X136786257Y-108070957D01*
X136495971Y-108070957D01*
X136423400Y-108101195D01*
X136387114Y-108161672D01*
X136387114Y-108282624D01*
X136423400Y-108343100D01*
X136495971Y-108373338D01*
X136568543Y-108373338D01*
X136641114Y-108070957D01*
X136387114Y-108645481D02*
X136895114Y-108645481D01*
X136459686Y-108645481D02*
X136423400Y-108675720D01*
X136387114Y-108736196D01*
X136387114Y-108826910D01*
X136423400Y-108887386D01*
X136495971Y-108917624D01*
X136895114Y-108917624D01*
X136858829Y-109189767D02*
X136895114Y-109250244D01*
X136895114Y-109371196D01*
X136858829Y-109431672D01*
X136786257Y-109461910D01*
X136749971Y-109461910D01*
X136677400Y-109431672D01*
X136641114Y-109371196D01*
X136641114Y-109280482D01*
X136604829Y-109220005D01*
X136532257Y-109189767D01*
X136495971Y-109189767D01*
X136423400Y-109220005D01*
X136387114Y-109280482D01*
X136387114Y-109371196D01*
X136423400Y-109431672D01*
X136858829Y-109975958D02*
X136895114Y-109915482D01*
X136895114Y-109794530D01*
X136858829Y-109734053D01*
X136786257Y-109703815D01*
X136495971Y-109703815D01*
X136423400Y-109734053D01*
X136387114Y-109794530D01*
X136387114Y-109915482D01*
X136423400Y-109975958D01*
X136495971Y-110006196D01*
X136568543Y-110006196D01*
X136641114Y-109703815D01*
X138114314Y-92861190D02*
X137352314Y-92861190D01*
X138114314Y-93133333D02*
X137715171Y-93133333D01*
X137642600Y-93103095D01*
X137606314Y-93042619D01*
X137606314Y-92951905D01*
X137642600Y-92891429D01*
X137678886Y-92861190D01*
X137606314Y-93345000D02*
X137606314Y-93586905D01*
X137352314Y-93435714D02*
X138005457Y-93435714D01*
X138078029Y-93465953D01*
X138114314Y-93526429D01*
X138114314Y-93586905D01*
X137606314Y-93707857D02*
X137606314Y-93949762D01*
X137352314Y-93798571D02*
X138005457Y-93798571D01*
X138078029Y-93828810D01*
X138114314Y-93889286D01*
X138114314Y-93949762D01*
X137606314Y-94161428D02*
X138368314Y-94161428D01*
X137642600Y-94161428D02*
X137606314Y-94221905D01*
X137606314Y-94342857D01*
X137642600Y-94403333D01*
X137678886Y-94433571D01*
X137751457Y-94463809D01*
X137969171Y-94463809D01*
X138041743Y-94433571D01*
X138078029Y-94403333D01*
X138114314Y-94342857D01*
X138114314Y-94221905D01*
X138078029Y-94161428D01*
X138078029Y-94705714D02*
X138114314Y-94766191D01*
X138114314Y-94887143D01*
X138078029Y-94947619D01*
X138005457Y-94977857D01*
X137969171Y-94977857D01*
X137896600Y-94947619D01*
X137860314Y-94887143D01*
X137860314Y-94796429D01*
X137824029Y-94735952D01*
X137751457Y-94705714D01*
X137715171Y-94705714D01*
X137642600Y-94735952D01*
X137606314Y-94796429D01*
X137606314Y-94887143D01*
X137642600Y-94947619D01*
X138041743Y-95250000D02*
X138078029Y-95280239D01*
X138114314Y-95250000D01*
X138078029Y-95219762D01*
X138041743Y-95250000D01*
X138114314Y-95250000D01*
X137642600Y-95250000D02*
X137678886Y-95280239D01*
X137715171Y-95250000D01*
X137678886Y-95219762D01*
X137642600Y-95250000D01*
X137715171Y-95250000D01*
X137316029Y-96005953D02*
X138295743Y-95461667D01*
X137316029Y-96671191D02*
X138295743Y-96126905D01*
X137606314Y-96822381D02*
X138114314Y-96943334D01*
X137751457Y-97064286D01*
X138114314Y-97185238D01*
X137606314Y-97306191D01*
X137606314Y-97487619D02*
X138114314Y-97608572D01*
X137751457Y-97729524D01*
X138114314Y-97850476D01*
X137606314Y-97971429D01*
X137606314Y-98152857D02*
X138114314Y-98273810D01*
X137751457Y-98394762D01*
X138114314Y-98515714D01*
X137606314Y-98636667D01*
X138041743Y-98878571D02*
X138078029Y-98908810D01*
X138114314Y-98878571D01*
X138078029Y-98848333D01*
X138041743Y-98878571D01*
X138114314Y-98878571D01*
X137606314Y-99453095D02*
X138223171Y-99453095D01*
X138295743Y-99422857D01*
X138332029Y-99392619D01*
X138368314Y-99332143D01*
X138368314Y-99241429D01*
X138332029Y-99180952D01*
X138078029Y-99453095D02*
X138114314Y-99392619D01*
X138114314Y-99271667D01*
X138078029Y-99211191D01*
X138041743Y-99180952D01*
X137969171Y-99150714D01*
X137751457Y-99150714D01*
X137678886Y-99180952D01*
X137642600Y-99211191D01*
X137606314Y-99271667D01*
X137606314Y-99392619D01*
X137642600Y-99453095D01*
X137606314Y-99755476D02*
X138114314Y-99755476D01*
X137678886Y-99755476D02*
X137642600Y-99785715D01*
X137606314Y-99846191D01*
X137606314Y-99936905D01*
X137642600Y-99997381D01*
X137715171Y-100027619D01*
X138114314Y-100027619D01*
X137606314Y-100602143D02*
X138114314Y-100602143D01*
X137606314Y-100330000D02*
X138005457Y-100330000D01*
X138078029Y-100360239D01*
X138114314Y-100420715D01*
X138114314Y-100511429D01*
X138078029Y-100571905D01*
X138041743Y-100602143D01*
X138041743Y-100904524D02*
X138078029Y-100934763D01*
X138114314Y-100904524D01*
X138078029Y-100874286D01*
X138041743Y-100904524D01*
X138114314Y-100904524D01*
X138114314Y-101297620D02*
X138078029Y-101237144D01*
X138041743Y-101206905D01*
X137969171Y-101176667D01*
X137751457Y-101176667D01*
X137678886Y-101206905D01*
X137642600Y-101237144D01*
X137606314Y-101297620D01*
X137606314Y-101388334D01*
X137642600Y-101448810D01*
X137678886Y-101479048D01*
X137751457Y-101509286D01*
X137969171Y-101509286D01*
X138041743Y-101479048D01*
X138078029Y-101448810D01*
X138114314Y-101388334D01*
X138114314Y-101297620D01*
X138114314Y-101781429D02*
X137606314Y-101781429D01*
X137751457Y-101781429D02*
X137678886Y-101811668D01*
X137642600Y-101841906D01*
X137606314Y-101902382D01*
X137606314Y-101962858D01*
X137606314Y-102446667D02*
X138223171Y-102446667D01*
X138295743Y-102416429D01*
X138332029Y-102386191D01*
X138368314Y-102325715D01*
X138368314Y-102235001D01*
X138332029Y-102174524D01*
X138078029Y-102446667D02*
X138114314Y-102386191D01*
X138114314Y-102265239D01*
X138078029Y-102204763D01*
X138041743Y-102174524D01*
X137969171Y-102144286D01*
X137751457Y-102144286D01*
X137678886Y-102174524D01*
X137642600Y-102204763D01*
X137606314Y-102265239D01*
X137606314Y-102386191D01*
X137642600Y-102446667D01*
X137316029Y-103202620D02*
X138295743Y-102658334D01*
X138114314Y-103505001D02*
X138078029Y-103444525D01*
X138005457Y-103414286D01*
X137352314Y-103414286D01*
X138114314Y-103746905D02*
X137606314Y-103746905D01*
X137352314Y-103746905D02*
X137388600Y-103716667D01*
X137424886Y-103746905D01*
X137388600Y-103777144D01*
X137352314Y-103746905D01*
X137424886Y-103746905D01*
X138078029Y-104321429D02*
X138114314Y-104260953D01*
X138114314Y-104140001D01*
X138078029Y-104079525D01*
X138041743Y-104049286D01*
X137969171Y-104019048D01*
X137751457Y-104019048D01*
X137678886Y-104049286D01*
X137642600Y-104079525D01*
X137606314Y-104140001D01*
X137606314Y-104260953D01*
X137642600Y-104321429D01*
X138078029Y-104835477D02*
X138114314Y-104775001D01*
X138114314Y-104654049D01*
X138078029Y-104593572D01*
X138005457Y-104563334D01*
X137715171Y-104563334D01*
X137642600Y-104593572D01*
X137606314Y-104654049D01*
X137606314Y-104775001D01*
X137642600Y-104835477D01*
X137715171Y-104865715D01*
X137787743Y-104865715D01*
X137860314Y-104563334D01*
X137606314Y-105137858D02*
X138114314Y-105137858D01*
X137678886Y-105137858D02*
X137642600Y-105168097D01*
X137606314Y-105228573D01*
X137606314Y-105319287D01*
X137642600Y-105379763D01*
X137715171Y-105410001D01*
X138114314Y-105410001D01*
X138078029Y-105682144D02*
X138114314Y-105742621D01*
X138114314Y-105863573D01*
X138078029Y-105924049D01*
X138005457Y-105954287D01*
X137969171Y-105954287D01*
X137896600Y-105924049D01*
X137860314Y-105863573D01*
X137860314Y-105772859D01*
X137824029Y-105712382D01*
X137751457Y-105682144D01*
X137715171Y-105682144D01*
X137642600Y-105712382D01*
X137606314Y-105772859D01*
X137606314Y-105863573D01*
X137642600Y-105924049D01*
X138078029Y-106468335D02*
X138114314Y-106407859D01*
X138114314Y-106286907D01*
X138078029Y-106226430D01*
X138005457Y-106196192D01*
X137715171Y-106196192D01*
X137642600Y-106226430D01*
X137606314Y-106286907D01*
X137606314Y-106407859D01*
X137642600Y-106468335D01*
X137715171Y-106498573D01*
X137787743Y-106498573D01*
X137860314Y-106196192D01*
X138078029Y-106740478D02*
X138114314Y-106800955D01*
X138114314Y-106921907D01*
X138078029Y-106982383D01*
X138005457Y-107012621D01*
X137969171Y-107012621D01*
X137896600Y-106982383D01*
X137860314Y-106921907D01*
X137860314Y-106831193D01*
X137824029Y-106770716D01*
X137751457Y-106740478D01*
X137715171Y-106740478D01*
X137642600Y-106770716D01*
X137606314Y-106831193D01*
X137606314Y-106921907D01*
X137642600Y-106982383D01*
X137316029Y-107738336D02*
X138295743Y-107194050D01*
X137606314Y-108222145D02*
X138223171Y-108222145D01*
X138295743Y-108191907D01*
X138332029Y-108161669D01*
X138368314Y-108101193D01*
X138368314Y-108010479D01*
X138332029Y-107950002D01*
X138078029Y-108222145D02*
X138114314Y-108161669D01*
X138114314Y-108040717D01*
X138078029Y-107980241D01*
X138041743Y-107950002D01*
X137969171Y-107919764D01*
X137751457Y-107919764D01*
X137678886Y-107950002D01*
X137642600Y-107980241D01*
X137606314Y-108040717D01*
X137606314Y-108161669D01*
X137642600Y-108222145D01*
X137606314Y-108524526D02*
X138368314Y-108524526D01*
X137642600Y-108524526D02*
X137606314Y-108585003D01*
X137606314Y-108705955D01*
X137642600Y-108766431D01*
X137678886Y-108796669D01*
X137751457Y-108826907D01*
X137969171Y-108826907D01*
X138041743Y-108796669D01*
X138078029Y-108766431D01*
X138114314Y-108705955D01*
X138114314Y-108585003D01*
X138078029Y-108524526D01*
X138114314Y-109189765D02*
X138078029Y-109129289D01*
X138005457Y-109099050D01*
X137352314Y-109099050D01*
X138041743Y-109431669D02*
X138078029Y-109461908D01*
X138114314Y-109431669D01*
X138078029Y-109401431D01*
X138041743Y-109431669D01*
X138114314Y-109431669D01*
X138114314Y-109734050D02*
X137352314Y-109734050D01*
X138114314Y-110006193D02*
X137715171Y-110006193D01*
X137642600Y-109975955D01*
X137606314Y-109915479D01*
X137606314Y-109824765D01*
X137642600Y-109764289D01*
X137678886Y-109734050D01*
X137606314Y-110217860D02*
X137606314Y-110459765D01*
X137352314Y-110308574D02*
X138005457Y-110308574D01*
X138078029Y-110338813D01*
X138114314Y-110399289D01*
X138114314Y-110459765D01*
X138114314Y-110671431D02*
X137606314Y-110671431D01*
X137678886Y-110671431D02*
X137642600Y-110701670D01*
X137606314Y-110762146D01*
X137606314Y-110852860D01*
X137642600Y-110913336D01*
X137715171Y-110943574D01*
X138114314Y-110943574D01*
X137715171Y-110943574D02*
X137642600Y-110973812D01*
X137606314Y-111034289D01*
X137606314Y-111125003D01*
X137642600Y-111185479D01*
X137715171Y-111215717D01*
X138114314Y-111215717D01*
X138114314Y-111608813D02*
X138078029Y-111548337D01*
X138005457Y-111518098D01*
X137352314Y-111518098D01*
D13*
X150241000Y-111125000D02*
G75*
G03X150241000Y-111125000I-2286000J0D01*
G01*
X145016220Y-102384860D02*
X144655540Y-103855520D01*
X144655540Y-103855520D02*
X144376140Y-102793800D01*
X144376140Y-102793800D02*
X144066260Y-103865680D01*
X144066260Y-103865680D02*
X143725900Y-102415340D01*
X146436080Y-103075740D02*
X145646140Y-103065580D01*
X145646140Y-103065580D02*
X145635980Y-103075740D01*
X145635980Y-103075740D02*
X145635980Y-103065580D01*
X145595340Y-102354380D02*
X145595340Y-103896160D01*
X146484340Y-102344220D02*
X146484340Y-103913940D01*
X146484340Y-103913940D02*
X146474180Y-103903780D01*
X147035520Y-102445820D02*
X147386040Y-102364540D01*
X147386040Y-102364540D02*
X147706080Y-102354380D01*
X147706080Y-102354380D02*
X147944840Y-102555040D01*
X147944840Y-102555040D02*
X147975320Y-102824280D01*
X147975320Y-102824280D02*
X147734020Y-103065580D01*
X147734020Y-103065580D02*
X147345400Y-103195120D01*
X147345400Y-103195120D02*
X147165060Y-103355140D01*
X147165060Y-103355140D02*
X147124420Y-103654860D01*
X147124420Y-103654860D02*
X147355560Y-103875840D01*
X147355560Y-103875840D02*
X147675600Y-103903780D01*
X147675600Y-103903780D02*
X148026120Y-103794560D01*
X149064980Y-102344220D02*
X149313900Y-102364540D01*
X149313900Y-102364540D02*
X149555200Y-102605840D01*
X149555200Y-102605840D02*
X149644100Y-103096060D01*
X149644100Y-103096060D02*
X149616160Y-103444040D01*
X149616160Y-103444040D02*
X149415500Y-103764080D01*
X149415500Y-103764080D02*
X149164040Y-103886000D01*
X149164040Y-103886000D02*
X148854160Y-103814880D01*
X148854160Y-103814880D02*
X148635720Y-103634540D01*
X148635720Y-103634540D02*
X148564600Y-103174800D01*
X148564600Y-103174800D02*
X148615400Y-102765860D01*
X148615400Y-102765860D02*
X148724620Y-102483920D01*
X148724620Y-102483920D02*
X149085300Y-102354380D01*
X148465540Y-100624640D02*
X148724620Y-101185980D01*
X148724620Y-101185980D02*
X148186140Y-101704140D01*
X148186140Y-101704140D02*
X147665440Y-101434900D01*
X147665440Y-101434900D02*
X147386040Y-101594920D01*
X145945860Y-101574600D02*
X145615660Y-101384100D01*
X145615660Y-101384100D02*
X145176240Y-101714300D01*
X145176240Y-101714300D02*
X144703800Y-101224080D01*
X144703800Y-101224080D02*
X144985740Y-100744020D01*
X144985740Y-100744020D02*
X144795240Y-100274120D01*
X144795240Y-100274120D02*
X144185640Y-100086160D01*
X144185640Y-100086160D02*
X144185640Y-99405440D01*
X144185640Y-99405440D02*
X144744440Y-99265740D01*
X144744440Y-99265740D02*
X144945100Y-98694240D01*
X144945100Y-98694240D02*
X144675860Y-98224340D01*
X144675860Y-98224340D02*
X145145760Y-97713800D01*
X145145760Y-97713800D02*
X145663920Y-97975420D01*
X145663920Y-97975420D02*
X146133820Y-97774760D01*
X146133820Y-97774760D02*
X146304000Y-97233740D01*
X146304000Y-97233740D02*
X146994880Y-97215960D01*
X146994880Y-97215960D02*
X147205700Y-97764600D01*
X147205700Y-97764600D02*
X147624800Y-97934780D01*
X147624800Y-97934780D02*
X148175980Y-97665540D01*
X148175980Y-97665540D02*
X148694140Y-98193860D01*
X148694140Y-98193860D02*
X148445220Y-98734880D01*
X148445220Y-98734880D02*
X148615400Y-99214940D01*
X148615400Y-99214940D02*
X149164040Y-99314000D01*
X149164040Y-99314000D02*
X149174200Y-100015040D01*
X149174200Y-100015040D02*
X148615400Y-100215700D01*
X148615400Y-100215700D02*
X148475700Y-100614480D01*
X146334480Y-100594160D02*
X146034760Y-100444300D01*
X146034760Y-100444300D02*
X145834100Y-100246180D01*
X145834100Y-100246180D02*
X145684240Y-99844860D01*
X145684240Y-99844860D02*
X145684240Y-99446080D01*
X145684240Y-99446080D02*
X145834100Y-99095560D01*
X145834100Y-99095560D02*
X146286220Y-98745040D01*
X146286220Y-98745040D02*
X146735800Y-98694240D01*
X146735800Y-98694240D02*
X147134580Y-98795840D01*
X147134580Y-98795840D02*
X147535900Y-99143820D01*
X147535900Y-99143820D02*
X147685760Y-99595940D01*
X147685760Y-99595940D02*
X147634960Y-100093780D01*
X147634960Y-100093780D02*
X147386040Y-100396040D01*
X147386040Y-100396040D02*
X147035520Y-100594160D01*
X147035520Y-100594160D02*
X147386040Y-101594920D01*
X146334480Y-100594160D02*
X145935700Y-101594920D01*
X147407381Y-117284524D02*
X147407381Y-116808333D01*
X147883571Y-116760714D01*
X147835952Y-116808333D01*
X147788333Y-116903571D01*
X147788333Y-117141667D01*
X147835952Y-117236905D01*
X147883571Y-117284524D01*
X147978810Y-117332143D01*
X148216905Y-117332143D01*
X148312143Y-117284524D01*
X148359762Y-117236905D01*
X148407381Y-117141667D01*
X148407381Y-116903571D01*
X148359762Y-116808333D01*
X148312143Y-116760714D01*
X147407381Y-117617857D02*
X148407381Y-117951190D01*
X147407381Y-118284524D01*
M02*
