G04 #@! TF.FileFunction,Copper,L2,Bot,Signal*
%FSLAX46Y46*%
G04 Gerber Fmt 4.6, Leading zero omitted, Abs format (unit mm)*
G04 Created by KiCad (PCBNEW 4.0.0-rc1-stable) date mar 10 nov 2015 21:40:48 CET*
%MOMM*%
G01*
G04 APERTURE LIST*
%ADD10C,0.100000*%
%ADD11R,1.778000X1.778000*%
%ADD12C,1.778000*%
%ADD13R,1.699260X1.699260*%
%ADD14C,1.998980*%
%ADD15R,1.574800X2.286000*%
%ADD16O,1.574800X2.286000*%
%ADD17O,1.092200X1.778000*%
%ADD18O,1.397000X3.911600*%
%ADD19R,3.810000X3.810000*%
%ADD20C,0.381000*%
%ADD21C,0.635000*%
%ADD22C,0.254000*%
G04 APERTURE END LIST*
D10*
D11*
X133985000Y-85090000D03*
D12*
X133985000Y-90090000D03*
D11*
X139065000Y-104775000D03*
D12*
X134065000Y-104775000D03*
D13*
X139066340Y-110490000D03*
D14*
X136526340Y-110490000D03*
D15*
X137160000Y-91440000D03*
D16*
X139700000Y-91440000D03*
X142240000Y-91440000D03*
X144780000Y-91440000D03*
X144780000Y-83820000D03*
X142240000Y-83820000D03*
X139700000Y-83820000D03*
X137160000Y-83820000D03*
D12*
X147955000Y-83820000D03*
X147955000Y-93980000D03*
X144145000Y-100965000D03*
X133985000Y-100965000D03*
X133985000Y-94615000D03*
X144145000Y-94615000D03*
X133985000Y-97790000D03*
X144145000Y-97790000D03*
X144145000Y-114935000D03*
X144145000Y-104775000D03*
X147955000Y-96520000D03*
X147955000Y-106680000D03*
D17*
X135686800Y-118135400D03*
X136499600Y-115544600D03*
X137312400Y-118110000D03*
X138125200Y-115544600D03*
X138938000Y-118135400D03*
D18*
X140970000Y-116840000D03*
X133654800Y-116840000D03*
D19*
X147955000Y-111125000D03*
D20*
X144780000Y-94615000D02*
X144145000Y-94615000D01*
X145478501Y-95313501D02*
X144780000Y-94615000D01*
X142240000Y-91440000D02*
X142240000Y-93345000D01*
X142240000Y-93345000D02*
X143510000Y-94615000D01*
X143510000Y-94615000D02*
X144145000Y-94615000D01*
X145478501Y-100266499D02*
X145478501Y-95313501D01*
X144145000Y-100965000D02*
X144780000Y-100965000D01*
X144780000Y-100965000D02*
X145478501Y-100266499D01*
X142240000Y-104140000D02*
X142240000Y-98425000D01*
X142240000Y-98425000D02*
X142875000Y-97790000D01*
X139700000Y-91440000D02*
X139700000Y-93345000D01*
X139700000Y-93345000D02*
X140335000Y-93980000D01*
X141605000Y-93980000D02*
X142240000Y-94615000D01*
X140335000Y-93980000D02*
X141605000Y-93980000D01*
X142240000Y-94615000D02*
X142240000Y-97155000D01*
X142240000Y-97155000D02*
X142875000Y-97790000D01*
X142875000Y-97790000D02*
X144145000Y-97790000D01*
X141605000Y-104775000D02*
X142240000Y-104140000D01*
X139065000Y-104775000D02*
X141605000Y-104775000D01*
X147955000Y-96520000D02*
X147955000Y-104140000D01*
X147955000Y-104140000D02*
X145415000Y-106680000D01*
X145415000Y-106680000D02*
X134620000Y-106680000D01*
X134620000Y-106680000D02*
X133985000Y-106045000D01*
X133985000Y-106045000D02*
X133985000Y-104855000D01*
X133985000Y-104855000D02*
X134065000Y-104775000D01*
X147955000Y-93980000D02*
X147955000Y-96520000D01*
X133985000Y-100965000D02*
X133985000Y-104695000D01*
X133985000Y-104695000D02*
X134065000Y-104775000D01*
D21*
X134065000Y-101045000D02*
X133985000Y-100965000D01*
D20*
X139066340Y-110490000D02*
X143510000Y-110490000D01*
X143510000Y-110490000D02*
X144145000Y-111125000D01*
X144145000Y-111125000D02*
X144145000Y-114935000D01*
X133985000Y-92075000D02*
X134620000Y-91440000D01*
X134620000Y-91440000D02*
X137160000Y-91440000D01*
X133985000Y-94615000D02*
X133985000Y-92075000D01*
X133985000Y-97790000D02*
X133985000Y-94615000D01*
X144145000Y-104775000D02*
X145415000Y-104775000D01*
X146304000Y-103886000D02*
X146304000Y-87249000D01*
X145415000Y-104775000D02*
X146304000Y-103886000D01*
X146304000Y-87249000D02*
X145415000Y-86360000D01*
X145415000Y-86360000D02*
X142875000Y-86360000D01*
X142875000Y-86360000D02*
X142240000Y-85725000D01*
X142240000Y-85725000D02*
X142240000Y-83820000D01*
X139700000Y-83820000D02*
X142240000Y-83820000D01*
D22*
X132270500Y-82105500D02*
X136734089Y-82105500D01*
X145205088Y-82105500D02*
X149669500Y-82105500D01*
X132270500Y-82308700D02*
X136327520Y-82308700D01*
X145614230Y-82308700D02*
X147744018Y-82308700D01*
X148171997Y-82308700D02*
X149669500Y-82308700D01*
X132270500Y-82511900D02*
X136104075Y-82511900D01*
X145836903Y-82511900D02*
X147170627Y-82511900D01*
X148741136Y-82511900D02*
X149669500Y-82511900D01*
X132270500Y-82715100D02*
X135951773Y-82715100D01*
X145989444Y-82715100D02*
X146905003Y-82715100D01*
X149005657Y-82715100D02*
X149669500Y-82715100D01*
X132270500Y-82918300D02*
X135845375Y-82918300D01*
X146096445Y-82918300D02*
X146725309Y-82918300D01*
X149185696Y-82918300D02*
X149669500Y-82918300D01*
X132270500Y-83121500D02*
X135780916Y-83121500D01*
X146157795Y-83121500D02*
X146596227Y-83121500D01*
X149315547Y-83121500D02*
X149669500Y-83121500D01*
X132270500Y-83324700D02*
X135750217Y-83324700D01*
X146189547Y-83324700D02*
X146509136Y-83324700D01*
X149399300Y-83324700D02*
X149669500Y-83324700D01*
X132270500Y-83527900D02*
X135737600Y-83527900D01*
X146202400Y-83527900D02*
X146458975Y-83527900D01*
X149450817Y-83527900D02*
X149669500Y-83527900D01*
X132270500Y-83731100D02*
X132666453Y-83731100D01*
X135296555Y-83731100D02*
X135737600Y-83731100D01*
X146202400Y-83731100D02*
X146432028Y-83731100D01*
X149478219Y-83731100D02*
X149669500Y-83731100D01*
X132270500Y-83934300D02*
X132523281Y-83934300D01*
X135452732Y-83934300D02*
X135737600Y-83934300D01*
X146202400Y-83934300D02*
X146429191Y-83934300D01*
X149475382Y-83934300D02*
X149669500Y-83934300D01*
X132270500Y-84137500D02*
X132466953Y-84137500D01*
X135507009Y-84137500D02*
X135737600Y-84137500D01*
X146202400Y-84137500D02*
X146463750Y-84137500D01*
X149445770Y-84137500D02*
X149669500Y-84137500D01*
X132270500Y-84340700D02*
X132457928Y-84340700D01*
X135512072Y-84340700D02*
X135752944Y-84340700D01*
X146186934Y-84340700D02*
X146521985Y-84340700D01*
X149391466Y-84340700D02*
X149669500Y-84340700D01*
X132270500Y-84543900D02*
X132457928Y-84543900D01*
X135512072Y-84543900D02*
X135789874Y-84543900D01*
X146151026Y-84543900D02*
X146608381Y-84543900D01*
X149300996Y-84543900D02*
X149669500Y-84543900D01*
X132270500Y-84747100D02*
X132457928Y-84747100D01*
X135512072Y-84747100D02*
X135856018Y-84747100D01*
X146085973Y-84747100D02*
X146739334Y-84747100D01*
X149166113Y-84747100D02*
X149669500Y-84747100D01*
X132270500Y-84950300D02*
X132457928Y-84950300D01*
X135512072Y-84950300D02*
X135964062Y-84950300D01*
X138354263Y-84950300D02*
X138504062Y-84950300D01*
X140894263Y-84950300D02*
X141044062Y-84950300D01*
X145974263Y-84950300D02*
X146927817Y-84950300D01*
X148978076Y-84950300D02*
X149669500Y-84950300D01*
X132270500Y-85153500D02*
X132457928Y-85153500D01*
X135512072Y-85153500D02*
X136123813Y-85153500D01*
X138194612Y-85153500D02*
X138663813Y-85153500D01*
X140734612Y-85153500D02*
X141203813Y-85153500D01*
X145814612Y-85153500D02*
X147203199Y-85153500D01*
X148698065Y-85153500D02*
X149669500Y-85153500D01*
X132270500Y-85356700D02*
X132457928Y-85356700D01*
X135512072Y-85356700D02*
X136356473Y-85356700D01*
X137960889Y-85356700D02*
X138896473Y-85356700D01*
X140500889Y-85356700D02*
X141414500Y-85356700D01*
X145580889Y-85356700D02*
X149669500Y-85356700D01*
X132270500Y-85559900D02*
X132457928Y-85559900D01*
X135512072Y-85559900D02*
X136816966Y-85559900D01*
X137499608Y-85559900D02*
X139356966Y-85559900D01*
X140039608Y-85559900D02*
X141414500Y-85559900D01*
X145609836Y-85559900D02*
X149669500Y-85559900D01*
X132270500Y-85763100D02*
X132457928Y-85763100D01*
X135512072Y-85763100D02*
X141418235Y-85763100D01*
X145982668Y-85763100D02*
X149669500Y-85763100D01*
X132270500Y-85966300D02*
X132457928Y-85966300D01*
X135512072Y-85966300D02*
X141454574Y-85966300D01*
X146188734Y-85966300D02*
X149669500Y-85966300D01*
X132270500Y-86169500D02*
X132493670Y-86169500D01*
X135481068Y-86169500D02*
X141545033Y-86169500D01*
X146391934Y-86169500D02*
X149669500Y-86169500D01*
X132270500Y-86372700D02*
X132598883Y-86372700D01*
X135368492Y-86372700D02*
X141720266Y-86372700D01*
X146595134Y-86372700D02*
X149669500Y-86372700D01*
X132270500Y-86575900D02*
X132882941Y-86575900D01*
X135082031Y-86575900D02*
X141923466Y-86575900D01*
X146798334Y-86575900D02*
X149669500Y-86575900D01*
X132270500Y-86779100D02*
X142126666Y-86779100D01*
X146980913Y-86779100D02*
X149669500Y-86779100D01*
X132270500Y-86982300D02*
X142338255Y-86982300D01*
X147082047Y-86982300D02*
X149669500Y-86982300D01*
X132270500Y-87185500D02*
X145073066Y-87185500D01*
X147123274Y-87185500D02*
X149669500Y-87185500D01*
X132270500Y-87388700D02*
X145276266Y-87388700D01*
X147129500Y-87388700D02*
X149669500Y-87388700D01*
X132270500Y-87591900D02*
X145478500Y-87591900D01*
X147129500Y-87591900D02*
X149669500Y-87591900D01*
X132270500Y-87795100D02*
X145478500Y-87795100D01*
X147129500Y-87795100D02*
X149669500Y-87795100D01*
X132270500Y-87998300D02*
X145478500Y-87998300D01*
X147129500Y-87998300D02*
X149669500Y-87998300D01*
X132270500Y-88201500D02*
X145478500Y-88201500D01*
X147129500Y-88201500D02*
X149669500Y-88201500D01*
X132270500Y-88404700D02*
X145478500Y-88404700D01*
X147129500Y-88404700D02*
X149669500Y-88404700D01*
X132270500Y-88607900D02*
X133605642Y-88607900D01*
X134340663Y-88607900D02*
X145478500Y-88607900D01*
X147129500Y-88607900D02*
X149669500Y-88607900D01*
X132270500Y-88811100D02*
X133180838Y-88811100D01*
X134789163Y-88811100D02*
X145478500Y-88811100D01*
X147129500Y-88811100D02*
X149669500Y-88811100D01*
X132270500Y-89014300D02*
X133114710Y-89014300D01*
X134855291Y-89014300D02*
X145478500Y-89014300D01*
X147129500Y-89014300D02*
X149669500Y-89014300D01*
X132270500Y-89217500D02*
X132916091Y-89217500D01*
X132932895Y-89217500D02*
X133292105Y-89217500D01*
X134677895Y-89217500D02*
X135037105Y-89217500D01*
X135053910Y-89217500D02*
X145478500Y-89217500D01*
X147129500Y-89217500D02*
X149669500Y-89217500D01*
X132270500Y-89420700D02*
X132615787Y-89420700D01*
X133136095Y-89420700D02*
X133495305Y-89420700D01*
X134474695Y-89420700D02*
X134833905Y-89420700D01*
X135361089Y-89420700D02*
X145478500Y-89420700D01*
X147129500Y-89420700D02*
X149669500Y-89420700D01*
X132270500Y-89623900D02*
X132531190Y-89623900D01*
X133339295Y-89623900D02*
X133698505Y-89623900D01*
X134271495Y-89623900D02*
X134630705Y-89623900D01*
X135436584Y-89623900D02*
X145478500Y-89623900D01*
X147129500Y-89623900D02*
X149669500Y-89623900D01*
X132270500Y-89827100D02*
X132479139Y-89827100D01*
X133542495Y-89827100D02*
X133901705Y-89827100D01*
X134068295Y-89827100D02*
X134427505Y-89827100D01*
X135486914Y-89827100D02*
X135943053Y-89827100D01*
X138369955Y-89827100D02*
X139033015Y-89827100D01*
X140366907Y-89827100D02*
X141573015Y-89827100D01*
X142906907Y-89827100D02*
X144104906Y-89827100D01*
X144652914Y-89827100D02*
X144907087Y-89827100D01*
X145455095Y-89827100D02*
X145478500Y-89827100D01*
X147129500Y-89827100D02*
X149669500Y-89827100D01*
X132270500Y-90030300D02*
X132461993Y-90030300D01*
X133745695Y-90030300D02*
X134224305Y-90030300D01*
X135514511Y-90030300D02*
X135799881Y-90030300D01*
X138526132Y-90030300D02*
X138741155Y-90030300D01*
X140657043Y-90030300D02*
X141281155Y-90030300D01*
X143197043Y-90030300D02*
X143823273Y-90030300D01*
X144653000Y-90030300D02*
X144907000Y-90030300D01*
X147129500Y-90030300D02*
X149669500Y-90030300D01*
X132270500Y-90233500D02*
X132466024Y-90233500D01*
X133661895Y-90233500D02*
X134049391Y-90233500D01*
X135503442Y-90233500D02*
X135743553Y-90233500D01*
X140839766Y-90233500D02*
X141098823Y-90233500D01*
X143379766Y-90233500D02*
X143638437Y-90233500D01*
X144653000Y-90233500D02*
X144907000Y-90233500D01*
X147129500Y-90233500D02*
X149669500Y-90233500D01*
X132270500Y-90436700D02*
X132495060Y-90436700D01*
X133458695Y-90436700D02*
X133817905Y-90436700D01*
X135469395Y-90436700D02*
X135734528Y-90436700D01*
X140963465Y-90436700D02*
X140975917Y-90436700D01*
X143503465Y-90436700D02*
X143508840Y-90436700D01*
X144653000Y-90436700D02*
X144907000Y-90436700D01*
X147129500Y-90436700D02*
X149669500Y-90436700D01*
X132270500Y-90639900D02*
X132562897Y-90639900D01*
X133255495Y-90639900D02*
X133614705Y-90639900D01*
X144653000Y-90639900D02*
X144907000Y-90639900D01*
X147129500Y-90639900D02*
X149669500Y-90639900D01*
X132270500Y-90843100D02*
X132653703Y-90843100D01*
X133052295Y-90843100D02*
X133411505Y-90843100D01*
X144653000Y-90843100D02*
X144907000Y-90843100D01*
X147129500Y-90843100D02*
X149669500Y-90843100D01*
X132270500Y-91046300D02*
X133208305Y-91046300D01*
X144653000Y-91046300D02*
X144907000Y-91046300D01*
X147129500Y-91046300D02*
X149669500Y-91046300D01*
X132270500Y-91249500D02*
X133141980Y-91249500D01*
X144653000Y-91249500D02*
X144907000Y-91249500D01*
X147129500Y-91249500D02*
X149669500Y-91249500D01*
X132270500Y-91452700D02*
X133302115Y-91452700D01*
X144633000Y-91452700D02*
X144927000Y-91452700D01*
X147129500Y-91452700D02*
X149669500Y-91452700D01*
X132270500Y-91655900D02*
X133277510Y-91655900D01*
X144653000Y-91655900D02*
X144907000Y-91655900D01*
X147129500Y-91655900D02*
X149669500Y-91655900D01*
X132270500Y-91859100D02*
X133191583Y-91859100D01*
X144653000Y-91859100D02*
X144907000Y-91859100D01*
X147129500Y-91859100D02*
X149669500Y-91859100D01*
X132270500Y-92062300D02*
X133159712Y-92062300D01*
X144653000Y-92062300D02*
X144907000Y-92062300D01*
X147129500Y-92062300D02*
X149669500Y-92062300D01*
X132270500Y-92265500D02*
X133159500Y-92265500D01*
X134961933Y-92265500D02*
X135734528Y-92265500D01*
X144653000Y-92265500D02*
X144907000Y-92265500D01*
X147129500Y-92265500D02*
X149669500Y-92265500D01*
X132270500Y-92468700D02*
X133159500Y-92468700D01*
X134810500Y-92468700D02*
X135734528Y-92468700D01*
X144653000Y-92468700D02*
X144907000Y-92468700D01*
X147129500Y-92468700D02*
X147744018Y-92468700D01*
X148171997Y-92468700D02*
X149669500Y-92468700D01*
X132270500Y-92671900D02*
X133159500Y-92671900D01*
X134810500Y-92671900D02*
X135741617Y-92671900D01*
X138572838Y-92671900D02*
X138580949Y-92671900D01*
X144653000Y-92671900D02*
X144907000Y-92671900D01*
X147129500Y-92671900D02*
X147170627Y-92671900D01*
X148741136Y-92671900D02*
X149669500Y-92671900D01*
X132270500Y-92875100D02*
X133159500Y-92875100D01*
X134810500Y-92875100D02*
X135808533Y-92875100D01*
X138508670Y-92875100D02*
X138773660Y-92875100D01*
X144653000Y-92875100D02*
X144907000Y-92875100D01*
X149005657Y-92875100D02*
X149669500Y-92875100D01*
X132270500Y-93078300D02*
X133159500Y-93078300D01*
X134810500Y-93078300D02*
X135979847Y-93078300D01*
X138343857Y-93078300D02*
X138874500Y-93078300D01*
X144607157Y-93078300D02*
X144952842Y-93078300D01*
X145395321Y-93078300D02*
X145478500Y-93078300D01*
X149185696Y-93078300D02*
X149669500Y-93078300D01*
X132270500Y-93281500D02*
X133159500Y-93281500D01*
X134810500Y-93281500D02*
X138874500Y-93281500D01*
X144893479Y-93281500D02*
X145478500Y-93281500D01*
X149315547Y-93281500D02*
X149669500Y-93281500D01*
X132270500Y-93484700D02*
X132960941Y-93484700D01*
X135010434Y-93484700D02*
X138887523Y-93484700D01*
X145170434Y-93484700D02*
X145478500Y-93484700D01*
X149399300Y-93484700D02*
X149669500Y-93484700D01*
X132270500Y-93687900D02*
X132772701Y-93687900D01*
X135198820Y-93687900D02*
X138951848Y-93687900D01*
X145358820Y-93687900D02*
X145478500Y-93687900D01*
X149450817Y-93687900D02*
X149669500Y-93687900D01*
X132270500Y-93891100D02*
X132637114Y-93891100D01*
X135333826Y-93891100D02*
X139084712Y-93891100D01*
X149478219Y-93891100D02*
X149669500Y-93891100D01*
X132270500Y-94094300D02*
X132550022Y-94094300D01*
X135418831Y-94094300D02*
X139281866Y-94094300D01*
X149475382Y-94094300D02*
X149669500Y-94094300D01*
X132270500Y-94297500D02*
X132494374Y-94297500D01*
X135475788Y-94297500D02*
X139485066Y-94297500D01*
X149445770Y-94297500D02*
X149669500Y-94297500D01*
X132270500Y-94500700D02*
X132462383Y-94500700D01*
X135508574Y-94500700D02*
X139688266Y-94500700D01*
X149391466Y-94500700D02*
X149669500Y-94500700D01*
X132270500Y-94703900D02*
X132459545Y-94703900D01*
X135505737Y-94703900D02*
X139946416Y-94703900D01*
X149300996Y-94703900D02*
X149669500Y-94703900D01*
X132270500Y-94907100D02*
X132489088Y-94907100D01*
X135481541Y-94907100D02*
X141364666Y-94907100D01*
X149166113Y-94907100D02*
X149669500Y-94907100D01*
X132270500Y-95110300D02*
X132541929Y-95110300D01*
X135432775Y-95110300D02*
X141414500Y-95110300D01*
X148978076Y-95110300D02*
X149669500Y-95110300D01*
X132270500Y-95313500D02*
X132622381Y-95313500D01*
X135342305Y-95313500D02*
X141414500Y-95313500D01*
X148891764Y-95313500D02*
X149669500Y-95313500D01*
X132270500Y-95516700D02*
X132752965Y-95516700D01*
X135214031Y-95516700D02*
X141414500Y-95516700D01*
X149106550Y-95516700D02*
X149669500Y-95516700D01*
X132270500Y-95719900D02*
X132933289Y-95719900D01*
X135034749Y-95719900D02*
X141414500Y-95719900D01*
X149253199Y-95719900D02*
X149669500Y-95719900D01*
X132270500Y-95923100D02*
X133159500Y-95923100D01*
X134810500Y-95923100D02*
X141414500Y-95923100D01*
X149357423Y-95923100D02*
X149669500Y-95923100D01*
X132270500Y-96126300D02*
X133159500Y-96126300D01*
X134810500Y-96126300D02*
X141414500Y-96126300D01*
X149430700Y-96126300D02*
X149669500Y-96126300D01*
X132270500Y-96329500D02*
X133159500Y-96329500D01*
X134810500Y-96329500D02*
X141414500Y-96329500D01*
X149470935Y-96329500D02*
X149669500Y-96329500D01*
X132270500Y-96532700D02*
X133122996Y-96532700D01*
X134846451Y-96532700D02*
X141414500Y-96532700D01*
X149476801Y-96532700D02*
X149669500Y-96532700D01*
X132270500Y-96735900D02*
X132883128Y-96735900D01*
X135086104Y-96735900D02*
X141414500Y-96735900D01*
X149468853Y-96735900D02*
X149669500Y-96735900D01*
X132270500Y-96939100D02*
X132720526Y-96939100D01*
X135249447Y-96939100D02*
X141414500Y-96939100D01*
X149422687Y-96939100D02*
X149669500Y-96939100D01*
X132270500Y-97142300D02*
X132604454Y-97142300D01*
X135366485Y-97142300D02*
X141414500Y-97142300D01*
X149346231Y-97142300D02*
X149669500Y-97142300D01*
X132270500Y-97345500D02*
X132521368Y-97345500D01*
X135450238Y-97345500D02*
X141439327Y-97345500D01*
X149237784Y-97345500D02*
X149669500Y-97345500D01*
X132270500Y-97548700D02*
X132478177Y-97548700D01*
X135490876Y-97548700D02*
X141518701Y-97548700D01*
X149084767Y-97548700D02*
X149669500Y-97548700D01*
X132270500Y-97751900D02*
X132461319Y-97751900D01*
X135507510Y-97751900D02*
X141669466Y-97751900D01*
X148858160Y-97751900D02*
X149669500Y-97751900D01*
X132270500Y-97955100D02*
X132465780Y-97955100D01*
X135504673Y-97955100D02*
X141561823Y-97955100D01*
X148780500Y-97955100D02*
X149669500Y-97955100D01*
X132270500Y-98158300D02*
X132503074Y-98158300D01*
X135464228Y-98158300D02*
X141462440Y-98158300D01*
X148780500Y-98158300D02*
X149669500Y-98158300D01*
X132270500Y-98361500D02*
X132572099Y-98361500D01*
X135398849Y-98361500D02*
X141420411Y-98361500D01*
X148780500Y-98361500D02*
X149669500Y-98361500D01*
X132270500Y-98564700D02*
X132671119Y-98564700D01*
X135303619Y-98564700D02*
X141414500Y-98564700D01*
X148780500Y-98564700D02*
X149669500Y-98564700D01*
X132270500Y-98767900D02*
X132810646Y-98767900D01*
X135160277Y-98767900D02*
X141414500Y-98767900D01*
X148780500Y-98767900D02*
X149669500Y-98767900D01*
X132270500Y-98971100D02*
X133013924Y-98971100D01*
X134954731Y-98971100D02*
X141414500Y-98971100D01*
X148780500Y-98971100D02*
X149669500Y-98971100D01*
X132270500Y-99174300D02*
X133346695Y-99174300D01*
X134630558Y-99174300D02*
X141414500Y-99174300D01*
X148780500Y-99174300D02*
X149669500Y-99174300D01*
X132270500Y-99377500D02*
X141414500Y-99377500D01*
X148780500Y-99377500D02*
X149669500Y-99377500D01*
X132270500Y-99580700D02*
X133342821Y-99580700D01*
X134624795Y-99580700D02*
X141414500Y-99580700D01*
X148780500Y-99580700D02*
X149669500Y-99580700D01*
X132270500Y-99783900D02*
X133012816Y-99783900D01*
X134959422Y-99783900D02*
X141414500Y-99783900D01*
X148780500Y-99783900D02*
X149669500Y-99783900D01*
X132270500Y-99987100D02*
X132807484Y-99987100D01*
X135161773Y-99987100D02*
X141414500Y-99987100D01*
X148780500Y-99987100D02*
X149669500Y-99987100D01*
X132270500Y-100190300D02*
X132668351Y-100190300D01*
X135300075Y-100190300D02*
X141414500Y-100190300D01*
X148780500Y-100190300D02*
X149669500Y-100190300D01*
X132270500Y-100393500D02*
X132571795Y-100393500D01*
X135397892Y-100393500D02*
X141414500Y-100393500D01*
X148780500Y-100393500D02*
X149669500Y-100393500D01*
X132270500Y-100596700D02*
X132505172Y-100596700D01*
X135465729Y-100596700D02*
X141414500Y-100596700D01*
X148780500Y-100596700D02*
X149669500Y-100596700D01*
X132270500Y-100799900D02*
X132463092Y-100799900D01*
X135505964Y-100799900D02*
X141414500Y-100799900D01*
X148780500Y-100799900D02*
X149669500Y-100799900D01*
X132270500Y-101003100D02*
X132460255Y-101003100D01*
X135506446Y-101003100D02*
X141414500Y-101003100D01*
X148780500Y-101003100D02*
X149669500Y-101003100D01*
X132270500Y-101206300D02*
X132479765Y-101206300D01*
X135493082Y-101206300D02*
X141414500Y-101206300D01*
X148780500Y-101206300D02*
X149669500Y-101206300D01*
X132270500Y-101409500D02*
X132521816Y-101409500D01*
X135446916Y-101409500D02*
X141414500Y-101409500D01*
X148780500Y-101409500D02*
X149669500Y-101409500D01*
X132270500Y-101612700D02*
X132602268Y-101612700D01*
X135364922Y-101612700D02*
X141414500Y-101612700D01*
X148780500Y-101612700D02*
X149669500Y-101612700D01*
X132270500Y-101815900D02*
X132720226Y-101815900D01*
X135249866Y-101815900D02*
X141414500Y-101815900D01*
X148780500Y-101815900D02*
X149669500Y-101815900D01*
X132270500Y-102019100D02*
X132884231Y-102019100D01*
X135088094Y-102019100D02*
X141414500Y-102019100D01*
X148780500Y-102019100D02*
X149669500Y-102019100D01*
X132270500Y-102222300D02*
X133123561Y-102222300D01*
X134848136Y-102222300D02*
X141414500Y-102222300D01*
X148780500Y-102222300D02*
X149669500Y-102222300D01*
X132270500Y-102425500D02*
X133159500Y-102425500D01*
X134810500Y-102425500D02*
X141414500Y-102425500D01*
X148780500Y-102425500D02*
X149669500Y-102425500D01*
X132270500Y-102628700D02*
X133159500Y-102628700D01*
X134810500Y-102628700D02*
X141414500Y-102628700D01*
X148780500Y-102628700D02*
X149669500Y-102628700D01*
X132270500Y-102831900D02*
X133159500Y-102831900D01*
X134810500Y-102831900D02*
X141414500Y-102831900D01*
X148780500Y-102831900D02*
X149669500Y-102831900D01*
X132270500Y-103035100D02*
X133159500Y-103035100D01*
X134810500Y-103035100D02*
X141414500Y-103035100D01*
X148780500Y-103035100D02*
X149669500Y-103035100D01*
X132270500Y-103238300D02*
X133159500Y-103238300D01*
X134810500Y-103238300D02*
X141414500Y-103238300D01*
X148780500Y-103238300D02*
X149669500Y-103238300D01*
X132270500Y-103441500D02*
X133159500Y-103441500D01*
X134813479Y-103441500D02*
X137724804Y-103441500D01*
X140406357Y-103441500D02*
X141414500Y-103441500D01*
X148780500Y-103441500D02*
X149669500Y-103441500D01*
X132270500Y-103644700D02*
X133040941Y-103644700D01*
X135090434Y-103644700D02*
X137591831Y-103644700D01*
X140540598Y-103644700D02*
X141414500Y-103644700D01*
X148780500Y-103644700D02*
X149669500Y-103644700D01*
X132270500Y-103847900D02*
X132852701Y-103847900D01*
X135278820Y-103847900D02*
X137543343Y-103847900D01*
X140589034Y-103847900D02*
X141364667Y-103847900D01*
X148780500Y-103847900D02*
X149669500Y-103847900D01*
X132270500Y-104051100D02*
X132717114Y-104051100D01*
X135413826Y-104051100D02*
X137537928Y-104051100D01*
X148780500Y-104051100D02*
X149669500Y-104051100D01*
X132270500Y-104254300D02*
X132630022Y-104254300D01*
X135498831Y-104254300D02*
X137537928Y-104254300D01*
X148769176Y-104254300D02*
X149669500Y-104254300D01*
X132270500Y-104457500D02*
X132574374Y-104457500D01*
X135555788Y-104457500D02*
X137537928Y-104457500D01*
X148716968Y-104457500D02*
X149669500Y-104457500D01*
X132270500Y-104660700D02*
X132542383Y-104660700D01*
X135588574Y-104660700D02*
X137537928Y-104660700D01*
X148590551Y-104660700D02*
X149669500Y-104660700D01*
X132270500Y-104863900D02*
X132539545Y-104863900D01*
X135585737Y-104863900D02*
X137537928Y-104863900D01*
X148398533Y-104863900D02*
X149669500Y-104863900D01*
X132270500Y-105067100D02*
X132569088Y-105067100D01*
X135561541Y-105067100D02*
X137537928Y-105067100D01*
X148195333Y-105067100D02*
X149669500Y-105067100D01*
X132270500Y-105270300D02*
X132621929Y-105270300D01*
X135512775Y-105270300D02*
X137537928Y-105270300D01*
X148539867Y-105270300D02*
X149669500Y-105270300D01*
X132270500Y-105473500D02*
X132702381Y-105473500D01*
X135422305Y-105473500D02*
X137537928Y-105473500D01*
X148782724Y-105473500D02*
X149669500Y-105473500D01*
X132270500Y-105676700D02*
X132832965Y-105676700D01*
X135294031Y-105676700D02*
X137538940Y-105676700D01*
X148778695Y-105676700D02*
X149669500Y-105676700D01*
X132270500Y-105879900D02*
X133013289Y-105879900D01*
X148575495Y-105879900D02*
X148934705Y-105879900D01*
X149246384Y-105879900D02*
X149669500Y-105879900D01*
X132270500Y-106083100D02*
X133163235Y-106083100D01*
X148372295Y-106083100D02*
X148731505Y-106083100D01*
X149360568Y-106083100D02*
X149669500Y-106083100D01*
X132270500Y-106286300D02*
X133199574Y-106286300D01*
X148169095Y-106286300D02*
X148528305Y-106286300D01*
X149432055Y-106286300D02*
X149669500Y-106286300D01*
X132270500Y-106489500D02*
X133290033Y-106489500D01*
X147937611Y-106489500D02*
X147944105Y-106489500D01*
X147965895Y-106489500D02*
X148325105Y-106489500D01*
X149467260Y-106489500D02*
X149669500Y-106489500D01*
X132270500Y-106692700D02*
X133465266Y-106692700D01*
X147762695Y-106692700D02*
X148147305Y-106692700D01*
X149480567Y-106692700D02*
X149669500Y-106692700D01*
X132270500Y-106895900D02*
X133668466Y-106895900D01*
X146366534Y-106895900D02*
X146446370Y-106895900D01*
X147559495Y-106895900D02*
X147918705Y-106895900D01*
X147991295Y-106895900D02*
X148350505Y-106895900D01*
X149469498Y-106895900D02*
X149669500Y-106895900D01*
X132270500Y-107099100D02*
X133871666Y-107099100D01*
X146163334Y-107099100D02*
X146486881Y-107099100D01*
X147356295Y-107099100D02*
X147715505Y-107099100D01*
X148194495Y-107099100D02*
X148553705Y-107099100D01*
X149420849Y-107099100D02*
X149669500Y-107099100D01*
X132270500Y-107302300D02*
X134083255Y-107302300D01*
X145952316Y-107302300D02*
X146558368Y-107302300D01*
X147153095Y-107302300D02*
X147512305Y-107302300D01*
X148397695Y-107302300D02*
X148756905Y-107302300D01*
X149346750Y-107302300D02*
X149669500Y-107302300D01*
X132270500Y-107505500D02*
X146741666Y-107505500D01*
X146949895Y-107505500D02*
X147309105Y-107505500D01*
X148600895Y-107505500D02*
X148960105Y-107505500D01*
X149168333Y-107505500D02*
X149669500Y-107505500D01*
X132270500Y-107708700D02*
X147105905Y-107708700D01*
X148804095Y-107708700D02*
X149669500Y-107708700D01*
X132270500Y-107911900D02*
X147135542Y-107911900D01*
X148774457Y-107911900D02*
X149669500Y-107911900D01*
X132270500Y-108115100D02*
X147423105Y-108115100D01*
X148467955Y-108115100D02*
X149669500Y-108115100D01*
X132270500Y-108318300D02*
X149669500Y-108318300D01*
X132270500Y-108521500D02*
X149669500Y-108521500D01*
X132270500Y-108724700D02*
X145648299Y-108724700D01*
X147808950Y-108724700D02*
X148101050Y-108724700D01*
X132270500Y-108927900D02*
X136042417Y-108927900D01*
X137013161Y-108927900D02*
X145483673Y-108927900D01*
X147828000Y-108927900D02*
X148082000Y-108927900D01*
X132270500Y-109131100D02*
X135651937Y-109131100D01*
X137400744Y-109131100D02*
X137841454Y-109131100D01*
X140292332Y-109131100D02*
X145420243Y-109131100D01*
X147828000Y-109131100D02*
X148082000Y-109131100D01*
X132270500Y-109334300D02*
X135578371Y-109334300D01*
X137474309Y-109334300D02*
X137502432Y-109334300D01*
X140470832Y-109334300D02*
X145415000Y-109334300D01*
X147828000Y-109334300D02*
X148082000Y-109334300D01*
X132270500Y-109537500D02*
X135383156Y-109537500D01*
X135394235Y-109537500D02*
X135753445Y-109537500D01*
X140545437Y-109537500D02*
X145415000Y-109537500D01*
X147828000Y-109537500D02*
X148082000Y-109537500D01*
X132270500Y-109740700D02*
X135073218Y-109740700D01*
X135597435Y-109740700D02*
X135956645Y-109740700D01*
X143852382Y-109740700D02*
X145415000Y-109740700D01*
X147828000Y-109740700D02*
X148082000Y-109740700D01*
X132270500Y-109943900D02*
X134979781Y-109943900D01*
X135800635Y-109943900D02*
X136159845Y-109943900D01*
X144131334Y-109943900D02*
X145415000Y-109943900D01*
X147828000Y-109943900D02*
X148082000Y-109943900D01*
X132270500Y-110147100D02*
X134926511Y-110147100D01*
X136003835Y-110147100D02*
X136363045Y-110147100D01*
X144334534Y-110147100D02*
X145415000Y-110147100D01*
X147828000Y-110147100D02*
X148082000Y-110147100D01*
X132270500Y-110350300D02*
X134897298Y-110350300D01*
X136207035Y-110350300D02*
X136594530Y-110350300D01*
X144537734Y-110350300D02*
X145415000Y-110350300D01*
X147828000Y-110350300D02*
X148082000Y-110350300D01*
X132270500Y-110553500D02*
X134885256Y-110553500D01*
X136283235Y-110553500D02*
X136670731Y-110553500D01*
X144740012Y-110553500D02*
X145415000Y-110553500D01*
X147828000Y-110553500D02*
X148082000Y-110553500D01*
X132270500Y-110756700D02*
X134913127Y-110756700D01*
X136080035Y-110756700D02*
X136439245Y-110756700D01*
X144879647Y-110756700D02*
X145415000Y-110756700D01*
X147828000Y-110756700D02*
X148082000Y-110756700D01*
X132270500Y-110959900D02*
X134959395Y-110959900D01*
X135876835Y-110959900D02*
X136236045Y-110959900D01*
X144953341Y-110959900D02*
X145535650Y-110959900D01*
X147828000Y-110959900D02*
X148082000Y-110959900D01*
X132270500Y-111163100D02*
X135029599Y-111163100D01*
X135673635Y-111163100D02*
X136032845Y-111163100D01*
X144970500Y-111163100D02*
X148102000Y-111163100D01*
X132270500Y-111366300D02*
X135172677Y-111366300D01*
X135470435Y-111366300D02*
X135829645Y-111366300D01*
X140550251Y-111366300D02*
X143218866Y-111366300D01*
X144970500Y-111366300D02*
X145459450Y-111366300D01*
X147828000Y-111366300D02*
X148082000Y-111366300D01*
X132270500Y-111569500D02*
X135626445Y-111569500D01*
X140505291Y-111569500D02*
X143319500Y-111569500D01*
X144970500Y-111569500D02*
X145415000Y-111569500D01*
X147828000Y-111569500D02*
X148082000Y-111569500D01*
X132270500Y-111772700D02*
X135624349Y-111772700D01*
X137428330Y-111772700D02*
X137750942Y-111772700D01*
X140376907Y-111772700D02*
X143319500Y-111772700D01*
X144970500Y-111772700D02*
X145415000Y-111772700D01*
X147828000Y-111772700D02*
X148082000Y-111772700D01*
X132270500Y-111975900D02*
X135844421Y-111975900D01*
X137224250Y-111975900D02*
X138204029Y-111975900D01*
X139938566Y-111975900D02*
X143319500Y-111975900D01*
X144970500Y-111975900D02*
X145415000Y-111975900D01*
X147828000Y-111975900D02*
X148082000Y-111975900D01*
X132270500Y-112179100D02*
X143319500Y-112179100D01*
X144970500Y-112179100D02*
X145415000Y-112179100D01*
X147828000Y-112179100D02*
X148082000Y-112179100D01*
X132270500Y-112382300D02*
X143319500Y-112382300D01*
X144970500Y-112382300D02*
X145415000Y-112382300D01*
X147828000Y-112382300D02*
X148082000Y-112382300D01*
X132270500Y-112585500D02*
X143319500Y-112585500D01*
X144970500Y-112585500D02*
X145415000Y-112585500D01*
X147828000Y-112585500D02*
X148082000Y-112585500D01*
X132270500Y-112788700D02*
X143319500Y-112788700D01*
X144970500Y-112788700D02*
X145415000Y-112788700D01*
X147828000Y-112788700D02*
X148082000Y-112788700D01*
X132270500Y-112991900D02*
X143319500Y-112991900D01*
X144970500Y-112991900D02*
X145415000Y-112991900D01*
X147828000Y-112991900D02*
X148082000Y-112991900D01*
X132270500Y-113195100D02*
X143319500Y-113195100D01*
X144970500Y-113195100D02*
X145435400Y-113195100D01*
X147828000Y-113195100D02*
X148082000Y-113195100D01*
X132270500Y-113398300D02*
X143319500Y-113398300D01*
X144970500Y-113398300D02*
X145532381Y-113398300D01*
X147828000Y-113398300D02*
X148082000Y-113398300D01*
X132270500Y-113601500D02*
X143319500Y-113601500D01*
X144970500Y-113601500D02*
X145770387Y-113601500D01*
X147732750Y-113601500D02*
X148177250Y-113601500D01*
X132270500Y-113804700D02*
X143120941Y-113804700D01*
X145170434Y-113804700D02*
X149669500Y-113804700D01*
X132270500Y-114007900D02*
X142932701Y-114007900D01*
X145358820Y-114007900D02*
X149669500Y-114007900D01*
X132270500Y-114211100D02*
X135846560Y-114211100D01*
X137152573Y-114211100D02*
X137472160Y-114211100D01*
X138778173Y-114211100D02*
X142797114Y-114211100D01*
X145493826Y-114211100D02*
X149669500Y-114211100D01*
X132270500Y-114414300D02*
X133001212Y-114414300D01*
X134307379Y-114414300D02*
X135619662Y-114414300D01*
X139005862Y-114414300D02*
X140316412Y-114414300D01*
X141622579Y-114414300D02*
X142710022Y-114414300D01*
X145578831Y-114414300D02*
X149669500Y-114414300D01*
X132270500Y-114617500D02*
X132721728Y-114617500D01*
X134585258Y-114617500D02*
X135475329Y-114617500D01*
X139149791Y-114617500D02*
X140036928Y-114617500D01*
X141900458Y-114617500D02*
X142654374Y-114617500D01*
X145635788Y-114617500D02*
X149669500Y-114617500D01*
X132270500Y-114820700D02*
X132552357Y-114820700D01*
X134756108Y-114820700D02*
X135384934Y-114820700D01*
X139240265Y-114820700D02*
X139867557Y-114820700D01*
X142071308Y-114820700D02*
X142622383Y-114820700D01*
X145668574Y-114820700D02*
X149669500Y-114820700D01*
X132270500Y-115023900D02*
X132440646Y-115023900D01*
X134867421Y-115023900D02*
X135335882Y-115023900D01*
X139289590Y-115023900D02*
X139755846Y-115023900D01*
X142182621Y-115023900D02*
X142619545Y-115023900D01*
X145665737Y-115023900D02*
X149669500Y-115023900D01*
X132270500Y-115227100D02*
X132371318Y-115227100D01*
X134937527Y-115227100D02*
X135318500Y-115227100D01*
X139306300Y-115227100D02*
X139686518Y-115227100D01*
X142252727Y-115227100D02*
X142649088Y-115227100D01*
X145641541Y-115227100D02*
X149669500Y-115227100D01*
X132270500Y-115430300D02*
X132335030Y-115430300D01*
X134974587Y-115430300D02*
X135318500Y-115430300D01*
X139306300Y-115430300D02*
X139650230Y-115430300D01*
X142289787Y-115430300D02*
X142701929Y-115430300D01*
X145592775Y-115430300D02*
X149669500Y-115430300D01*
X132270500Y-115633500D02*
X132321300Y-115633500D01*
X134988300Y-115633500D02*
X135318500Y-115633500D01*
X139306300Y-115633500D02*
X139636500Y-115633500D01*
X142303500Y-115633500D02*
X142782381Y-115633500D01*
X145502305Y-115633500D02*
X149669500Y-115633500D01*
X132270500Y-115836700D02*
X132321300Y-115836700D01*
X134988300Y-115836700D02*
X135318500Y-115836700D01*
X139306300Y-115836700D02*
X139636500Y-115836700D01*
X142303500Y-115836700D02*
X142912965Y-115836700D01*
X145374031Y-115836700D02*
X149669500Y-115836700D01*
X132270500Y-116039900D02*
X132321300Y-116039900D01*
X134988300Y-116039900D02*
X135332720Y-116039900D01*
X139291767Y-116039900D02*
X139636500Y-116039900D01*
X142303500Y-116039900D02*
X143093289Y-116039900D01*
X145194749Y-116039900D02*
X149669500Y-116039900D01*
X132270500Y-116243100D02*
X132321300Y-116243100D01*
X134988300Y-116243100D02*
X135376866Y-116243100D01*
X139247923Y-116243100D02*
X139636500Y-116243100D01*
X142303500Y-116243100D02*
X143356653Y-116243100D01*
X144928088Y-116243100D02*
X149669500Y-116243100D01*
X132270500Y-116446300D02*
X132321300Y-116446300D01*
X134988300Y-116446300D02*
X135461504Y-116446300D01*
X139163434Y-116446300D02*
X139636500Y-116446300D01*
X142303500Y-116446300D02*
X143921371Y-116446300D01*
X144350735Y-116446300D02*
X149669500Y-116446300D01*
X132270500Y-116649500D02*
X132321300Y-116649500D01*
X134988300Y-116649500D02*
X135382060Y-116649500D01*
X139065002Y-116649500D02*
X139636500Y-116649500D01*
X142303500Y-116649500D02*
X149669500Y-116649500D01*
X132270500Y-116852700D02*
X132321300Y-116852700D01*
X142303500Y-116852700D02*
X149669500Y-116852700D01*
X132270500Y-117055900D02*
X132321300Y-117055900D01*
X142303500Y-117055900D02*
X149669500Y-117055900D01*
X132270500Y-117259100D02*
X132321300Y-117259100D01*
X142303500Y-117259100D02*
X149669500Y-117259100D01*
X132270500Y-117462300D02*
X132321300Y-117462300D01*
X142303500Y-117462300D02*
X149669500Y-117462300D01*
X132270500Y-117665500D02*
X132321300Y-117665500D01*
X142303500Y-117665500D02*
X149669500Y-117665500D01*
X132270500Y-117868700D02*
X132321300Y-117868700D01*
X142303500Y-117868700D02*
X149669500Y-117868700D01*
X132270500Y-118071900D02*
X132321300Y-118071900D01*
X138791000Y-118071900D02*
X139085000Y-118071900D01*
X142303500Y-118071900D02*
X149669500Y-118071900D01*
X132270500Y-118275100D02*
X132337504Y-118275100D01*
X138811000Y-118275100D02*
X139065000Y-118275100D01*
X142286921Y-118275100D02*
X149669500Y-118275100D01*
X132270500Y-118478300D02*
X132379741Y-118478300D01*
X138811000Y-118478300D02*
X139065000Y-118478300D01*
X142245425Y-118478300D02*
X149669500Y-118478300D01*
X132270500Y-118681500D02*
X132455685Y-118681500D01*
X138811000Y-118681500D02*
X139065000Y-118681500D01*
X142170190Y-118681500D02*
X149669500Y-118681500D01*
X132270500Y-118884700D02*
X132574207Y-118884700D01*
X138811000Y-118884700D02*
X139065000Y-118884700D01*
X142052264Y-118884700D02*
X149669500Y-118884700D01*
X132270500Y-119087900D02*
X132755045Y-119087900D01*
X134556315Y-119087900D02*
X134675715Y-119087900D01*
X138811000Y-119087900D02*
X139065000Y-119087900D01*
X139953154Y-119087900D02*
X140070245Y-119087900D01*
X141871515Y-119087900D02*
X149669500Y-119087900D01*
X132270500Y-119291100D02*
X133049197Y-119291100D01*
X134259803Y-119291100D02*
X134826854Y-119291100D01*
X138811000Y-119291100D02*
X139065000Y-119291100D01*
X139797550Y-119291100D02*
X140364397Y-119291100D01*
X141575003Y-119291100D02*
X149669500Y-119291100D01*
X132270500Y-119494300D02*
X135080803Y-119494300D01*
X136294650Y-119494300D02*
X136753379Y-119494300D01*
X137871665Y-119494300D02*
X138331553Y-119494300D01*
X138808722Y-119494300D02*
X139067277Y-119494300D01*
X139544446Y-119494300D02*
X149669500Y-119494300D01*
X132270500Y-119697500D02*
X149669500Y-119697500D01*
X136627160Y-82136971D02*
X136381146Y-82265583D01*
X136164799Y-82439531D01*
X135986359Y-82652188D01*
X135852622Y-82895454D01*
X135768683Y-83160063D01*
X135737739Y-83435937D01*
X135737600Y-83455797D01*
X135737600Y-84184203D01*
X135764689Y-84460482D01*
X135844926Y-84726238D01*
X135975253Y-84971347D01*
X136150707Y-85186475D01*
X136364604Y-85363426D01*
X136608798Y-85495461D01*
X136873987Y-85577551D01*
X137150070Y-85606568D01*
X137426531Y-85581408D01*
X137692840Y-85503029D01*
X137938854Y-85374417D01*
X138155201Y-85200469D01*
X138333641Y-84987812D01*
X138430413Y-84811786D01*
X138515253Y-84971347D01*
X138690707Y-85186475D01*
X138904604Y-85363426D01*
X139148798Y-85495461D01*
X139413987Y-85577551D01*
X139690070Y-85606568D01*
X139966531Y-85581408D01*
X140232840Y-85503029D01*
X140478854Y-85374417D01*
X140695201Y-85200469D01*
X140873641Y-84987812D01*
X140970413Y-84811786D01*
X141055253Y-84971347D01*
X141230707Y-85186475D01*
X141414500Y-85338522D01*
X141414500Y-85725000D01*
X141421938Y-85800858D01*
X141428587Y-85876852D01*
X141429799Y-85881023D01*
X141430222Y-85885340D01*
X141452260Y-85958334D01*
X141473535Y-86031564D01*
X141475532Y-86035416D01*
X141476787Y-86039574D01*
X141512577Y-86106884D01*
X141547677Y-86174600D01*
X141550388Y-86177996D01*
X141552424Y-86181825D01*
X141600597Y-86240892D01*
X141648190Y-86300510D01*
X141654147Y-86306551D01*
X141654249Y-86306676D01*
X141654365Y-86306772D01*
X141656283Y-86308717D01*
X142291284Y-86943717D01*
X142350201Y-86992112D01*
X142408620Y-87041131D01*
X142412425Y-87043223D01*
X142415778Y-87045977D01*
X142482993Y-87082018D01*
X142549801Y-87118746D01*
X142553935Y-87120057D01*
X142557765Y-87122111D01*
X142630714Y-87144413D01*
X142703369Y-87167461D01*
X142707684Y-87167945D01*
X142711835Y-87169214D01*
X142787711Y-87176922D01*
X142863474Y-87185420D01*
X142871950Y-87185479D01*
X142872119Y-87185496D01*
X142872277Y-87185481D01*
X142875000Y-87185500D01*
X145073066Y-87185500D01*
X145478500Y-87590934D01*
X145478500Y-89840600D01*
X145464646Y-89831159D01*
X145206996Y-89721672D01*
X145127060Y-89704990D01*
X144907000Y-89827148D01*
X144907000Y-91313000D01*
X144927000Y-91313000D01*
X144927000Y-91567000D01*
X144907000Y-91567000D01*
X144907000Y-93052852D01*
X145127060Y-93175010D01*
X145206996Y-93158328D01*
X145464646Y-93048841D01*
X145478500Y-93039400D01*
X145478500Y-93868033D01*
X145331730Y-93647127D01*
X145121135Y-93435056D01*
X144873359Y-93267929D01*
X144597840Y-93152112D01*
X144507570Y-93133582D01*
X144653000Y-93052852D01*
X144653000Y-91567000D01*
X144633000Y-91567000D01*
X144633000Y-91313000D01*
X144653000Y-91313000D01*
X144653000Y-89827148D01*
X144432940Y-89704990D01*
X144353004Y-89721672D01*
X144095354Y-89831159D01*
X143864014Y-89988808D01*
X143667875Y-90188560D01*
X143514474Y-90422738D01*
X143506520Y-90442446D01*
X143424747Y-90288653D01*
X143249293Y-90073525D01*
X143035396Y-89896574D01*
X142791202Y-89764539D01*
X142526013Y-89682449D01*
X142249930Y-89653432D01*
X141973469Y-89678592D01*
X141707160Y-89756971D01*
X141461146Y-89885583D01*
X141244799Y-90059531D01*
X141066359Y-90272188D01*
X140969587Y-90448214D01*
X140884747Y-90288653D01*
X140709293Y-90073525D01*
X140495396Y-89896574D01*
X140251202Y-89764539D01*
X139986013Y-89682449D01*
X139709930Y-89653432D01*
X139433469Y-89678592D01*
X139167160Y-89756971D01*
X138921146Y-89885583D01*
X138704799Y-90059531D01*
X138578535Y-90210007D01*
X138577408Y-90195879D01*
X138524294Y-90024366D01*
X138425500Y-89874441D01*
X138288850Y-89757975D01*
X138125163Y-89684190D01*
X137947400Y-89658928D01*
X136372600Y-89658928D01*
X136271479Y-89666992D01*
X136099966Y-89720106D01*
X135950041Y-89818900D01*
X135833575Y-89955550D01*
X135759790Y-90119237D01*
X135734528Y-90297000D01*
X135734528Y-90614500D01*
X135423646Y-90614500D01*
X135424086Y-90613582D01*
X135498580Y-90322770D01*
X135514908Y-90023012D01*
X135472443Y-89725829D01*
X135372816Y-89442641D01*
X135294289Y-89295727D01*
X135041231Y-89213374D01*
X134164605Y-90090000D01*
X134178748Y-90104143D01*
X133999143Y-90283748D01*
X133985000Y-90269605D01*
X133108374Y-91146231D01*
X133190727Y-91399289D01*
X133395998Y-91497717D01*
X133352867Y-91550226D01*
X133303869Y-91608620D01*
X133301777Y-91612425D01*
X133299023Y-91615778D01*
X133262991Y-91682977D01*
X133226254Y-91749801D01*
X133224942Y-91753937D01*
X133222890Y-91757764D01*
X133200593Y-91830695D01*
X133177539Y-91903369D01*
X133177055Y-91907683D01*
X133175786Y-91911834D01*
X133168078Y-91987716D01*
X133159580Y-92063474D01*
X133159521Y-92071950D01*
X133159504Y-92072119D01*
X133159519Y-92072277D01*
X133159500Y-92075000D01*
X133159500Y-93333812D01*
X133025435Y-93421542D01*
X132811899Y-93630652D01*
X132643047Y-93877255D01*
X132525309Y-94151959D01*
X132463170Y-94444299D01*
X132458997Y-94743142D01*
X132512949Y-95037104D01*
X132622971Y-95314988D01*
X132784872Y-95566210D01*
X132992486Y-95781200D01*
X133159500Y-95897278D01*
X133159500Y-96508812D01*
X133025435Y-96596542D01*
X132811899Y-96805652D01*
X132643047Y-97052255D01*
X132525309Y-97326959D01*
X132463170Y-97619299D01*
X132458997Y-97918142D01*
X132512949Y-98212104D01*
X132622971Y-98489988D01*
X132784872Y-98741210D01*
X132992486Y-98956200D01*
X133237904Y-99126770D01*
X133511779Y-99246423D01*
X133803679Y-99310602D01*
X134102486Y-99316861D01*
X134396817Y-99264962D01*
X134675462Y-99156883D01*
X134927808Y-98996739D01*
X135144243Y-98790631D01*
X135316522Y-98546410D01*
X135438084Y-98273377D01*
X135504299Y-97981932D01*
X135509065Y-97640564D01*
X135451014Y-97347384D01*
X135337123Y-97071063D01*
X135171730Y-96822127D01*
X134961135Y-96610056D01*
X134810500Y-96508451D01*
X134810500Y-95896185D01*
X134927808Y-95821739D01*
X135144243Y-95615631D01*
X135316522Y-95371410D01*
X135438084Y-95098377D01*
X135504299Y-94806932D01*
X135509065Y-94465564D01*
X135451014Y-94172384D01*
X135337123Y-93896063D01*
X135171730Y-93647127D01*
X134961135Y-93435056D01*
X134810500Y-93333451D01*
X134810500Y-92416934D01*
X134961933Y-92265500D01*
X135734528Y-92265500D01*
X135734528Y-92583000D01*
X135742592Y-92684121D01*
X135795706Y-92855634D01*
X135894500Y-93005559D01*
X136031150Y-93122025D01*
X136194837Y-93195810D01*
X136372600Y-93221072D01*
X137947400Y-93221072D01*
X138048521Y-93213008D01*
X138220034Y-93159894D01*
X138369959Y-93061100D01*
X138486425Y-92924450D01*
X138560210Y-92760763D01*
X138574042Y-92663430D01*
X138690707Y-92806475D01*
X138874500Y-92958522D01*
X138874500Y-93345000D01*
X138881938Y-93420858D01*
X138888587Y-93496852D01*
X138889799Y-93501023D01*
X138890222Y-93505340D01*
X138912260Y-93578334D01*
X138933535Y-93651564D01*
X138935532Y-93655416D01*
X138936787Y-93659574D01*
X138972577Y-93726884D01*
X139007677Y-93794600D01*
X139010388Y-93797996D01*
X139012424Y-93801825D01*
X139060597Y-93860892D01*
X139108190Y-93920510D01*
X139114147Y-93926551D01*
X139114249Y-93926676D01*
X139114365Y-93926772D01*
X139116283Y-93928717D01*
X139751284Y-94563717D01*
X139810201Y-94612112D01*
X139868620Y-94661131D01*
X139872425Y-94663223D01*
X139875778Y-94665977D01*
X139942993Y-94702018D01*
X140009801Y-94738746D01*
X140013935Y-94740057D01*
X140017765Y-94742111D01*
X140090714Y-94764413D01*
X140163369Y-94787461D01*
X140167684Y-94787945D01*
X140171835Y-94789214D01*
X140247711Y-94796922D01*
X140323474Y-94805420D01*
X140331950Y-94805479D01*
X140332119Y-94805496D01*
X140332277Y-94805481D01*
X140335000Y-94805500D01*
X141263066Y-94805500D01*
X141414500Y-94956933D01*
X141414500Y-97155000D01*
X141421938Y-97230858D01*
X141428587Y-97306852D01*
X141429799Y-97311023D01*
X141430222Y-97315340D01*
X141452260Y-97388334D01*
X141473535Y-97461564D01*
X141475532Y-97465416D01*
X141476787Y-97469574D01*
X141512577Y-97536884D01*
X141547677Y-97604600D01*
X141550388Y-97607996D01*
X141552424Y-97611825D01*
X141600597Y-97670892D01*
X141648190Y-97730510D01*
X141654147Y-97736551D01*
X141654249Y-97736676D01*
X141654365Y-97736772D01*
X141656283Y-97738717D01*
X141707566Y-97790000D01*
X141656283Y-97841283D01*
X141607867Y-97900226D01*
X141558869Y-97958620D01*
X141556777Y-97962425D01*
X141554023Y-97965778D01*
X141517991Y-98032977D01*
X141481254Y-98099801D01*
X141479942Y-98103937D01*
X141477890Y-98107764D01*
X141455593Y-98180695D01*
X141432539Y-98253369D01*
X141432055Y-98257683D01*
X141430786Y-98261834D01*
X141423078Y-98337716D01*
X141414580Y-98413474D01*
X141414521Y-98421950D01*
X141414504Y-98422119D01*
X141414519Y-98422277D01*
X141414500Y-98425000D01*
X141414500Y-103798067D01*
X141263066Y-103949500D01*
X140592072Y-103949500D01*
X140592072Y-103886000D01*
X140584008Y-103784879D01*
X140530894Y-103613366D01*
X140432100Y-103463441D01*
X140295450Y-103346975D01*
X140131763Y-103273190D01*
X139954000Y-103247928D01*
X138176000Y-103247928D01*
X138074879Y-103255992D01*
X137903366Y-103309106D01*
X137753441Y-103407900D01*
X137636975Y-103544550D01*
X137563190Y-103708237D01*
X137537928Y-103886000D01*
X137537928Y-105664000D01*
X137545992Y-105765121D01*
X137573671Y-105854500D01*
X135141422Y-105854500D01*
X135224243Y-105775631D01*
X135396522Y-105531410D01*
X135518084Y-105258377D01*
X135584299Y-104966932D01*
X135589065Y-104625564D01*
X135531014Y-104332384D01*
X135417123Y-104056063D01*
X135251730Y-103807127D01*
X135041135Y-103595056D01*
X134810500Y-103439491D01*
X134810500Y-102246185D01*
X134927808Y-102171739D01*
X135144243Y-101965631D01*
X135316522Y-101721410D01*
X135438084Y-101448377D01*
X135504299Y-101156932D01*
X135509065Y-100815564D01*
X135451014Y-100522384D01*
X135337123Y-100246063D01*
X135171730Y-99997127D01*
X134961135Y-99785056D01*
X134713359Y-99617929D01*
X134437840Y-99502112D01*
X134145072Y-99442015D01*
X133846208Y-99439929D01*
X133552630Y-99495932D01*
X133275520Y-99607891D01*
X133025435Y-99771542D01*
X132811899Y-99980652D01*
X132643047Y-100227255D01*
X132525309Y-100501959D01*
X132463170Y-100794299D01*
X132458997Y-101093142D01*
X132512949Y-101387104D01*
X132622971Y-101664988D01*
X132784872Y-101916210D01*
X132992486Y-102131200D01*
X133159500Y-102247278D01*
X133159500Y-103546163D01*
X133105435Y-103581542D01*
X132891899Y-103790652D01*
X132723047Y-104037255D01*
X132605309Y-104311959D01*
X132543170Y-104604299D01*
X132538997Y-104903142D01*
X132592949Y-105197104D01*
X132702971Y-105474988D01*
X132864872Y-105726210D01*
X133072486Y-105941200D01*
X133159500Y-106001676D01*
X133159500Y-106045000D01*
X133166938Y-106120858D01*
X133173587Y-106196852D01*
X133174799Y-106201023D01*
X133175222Y-106205340D01*
X133197260Y-106278334D01*
X133218535Y-106351564D01*
X133220532Y-106355416D01*
X133221787Y-106359574D01*
X133257577Y-106426884D01*
X133292677Y-106494600D01*
X133295388Y-106497996D01*
X133297424Y-106501825D01*
X133345597Y-106560892D01*
X133393190Y-106620510D01*
X133399147Y-106626551D01*
X133399249Y-106626676D01*
X133399365Y-106626772D01*
X133401283Y-106628717D01*
X134036284Y-107263717D01*
X134095201Y-107312112D01*
X134153620Y-107361131D01*
X134157425Y-107363223D01*
X134160778Y-107365977D01*
X134227993Y-107402018D01*
X134294801Y-107438746D01*
X134298935Y-107440057D01*
X134302765Y-107442111D01*
X134375714Y-107464413D01*
X134448369Y-107487461D01*
X134452684Y-107487945D01*
X134456835Y-107489214D01*
X134532711Y-107496922D01*
X134608474Y-107505420D01*
X134616950Y-107505479D01*
X134617119Y-107505496D01*
X134617277Y-107505481D01*
X134620000Y-107505500D01*
X145415000Y-107505500D01*
X145490858Y-107498062D01*
X145566852Y-107491413D01*
X145571023Y-107490201D01*
X145575340Y-107489778D01*
X145648334Y-107467740D01*
X145721564Y-107446465D01*
X145725416Y-107444468D01*
X145729574Y-107443213D01*
X145796884Y-107407423D01*
X145864600Y-107372323D01*
X145867996Y-107369612D01*
X145871825Y-107367576D01*
X145930892Y-107319403D01*
X145990510Y-107271810D01*
X145996551Y-107265853D01*
X145996676Y-107265751D01*
X145996772Y-107265635D01*
X145998717Y-107263717D01*
X146436389Y-106826045D01*
X146467557Y-107044171D01*
X146567184Y-107327359D01*
X146645711Y-107474273D01*
X146898769Y-107556626D01*
X147775395Y-106680000D01*
X148134605Y-106680000D01*
X149011231Y-107556626D01*
X149264289Y-107474273D01*
X149394086Y-107203582D01*
X149468580Y-106912770D01*
X149484908Y-106613012D01*
X149442443Y-106315829D01*
X149342816Y-106032641D01*
X149264289Y-105885727D01*
X149011231Y-105803374D01*
X148134605Y-106680000D01*
X147775395Y-106680000D01*
X147761253Y-106665858D01*
X147940858Y-106486253D01*
X147955000Y-106500395D01*
X148831626Y-105623769D01*
X148749273Y-105370711D01*
X148478582Y-105240914D01*
X148187770Y-105166420D01*
X148100753Y-105161680D01*
X148538716Y-104723717D01*
X148587108Y-104664804D01*
X148636131Y-104606380D01*
X148638223Y-104602575D01*
X148640977Y-104599222D01*
X148677009Y-104532023D01*
X148713746Y-104465199D01*
X148715058Y-104461063D01*
X148717110Y-104457236D01*
X148739394Y-104384346D01*
X148762461Y-104311631D01*
X148762945Y-104307312D01*
X148764213Y-104303166D01*
X148771912Y-104227374D01*
X148780420Y-104151526D01*
X148780479Y-104143041D01*
X148780495Y-104142882D01*
X148780481Y-104142734D01*
X148780500Y-104140000D01*
X148780500Y-97801185D01*
X148897808Y-97726739D01*
X149114243Y-97520631D01*
X149286522Y-97276410D01*
X149408084Y-97003377D01*
X149474299Y-96711932D01*
X149479065Y-96370564D01*
X149421014Y-96077384D01*
X149307123Y-95801063D01*
X149141730Y-95552127D01*
X148931135Y-95340056D01*
X148797865Y-95250165D01*
X148897808Y-95186739D01*
X149114243Y-94980631D01*
X149286522Y-94736410D01*
X149408084Y-94463377D01*
X149474299Y-94171932D01*
X149479065Y-93830564D01*
X149421014Y-93537384D01*
X149307123Y-93261063D01*
X149141730Y-93012127D01*
X148931135Y-92800056D01*
X148683359Y-92632929D01*
X148407840Y-92517112D01*
X148115072Y-92457015D01*
X147816208Y-92454929D01*
X147522630Y-92510932D01*
X147245520Y-92622891D01*
X147129500Y-92698812D01*
X147129500Y-87249000D01*
X147122062Y-87173142D01*
X147115413Y-87097148D01*
X147114201Y-87092977D01*
X147113778Y-87088660D01*
X147091740Y-87015666D01*
X147070465Y-86942436D01*
X147068468Y-86938584D01*
X147067213Y-86934426D01*
X147031423Y-86867116D01*
X146996323Y-86799400D01*
X146993612Y-86796004D01*
X146991576Y-86792175D01*
X146943403Y-86733108D01*
X146895810Y-86673490D01*
X146889853Y-86667449D01*
X146889751Y-86667324D01*
X146889635Y-86667228D01*
X146887717Y-86665283D01*
X145998717Y-85776283D01*
X145939774Y-85727867D01*
X145881380Y-85678869D01*
X145877575Y-85676777D01*
X145874222Y-85674023D01*
X145807023Y-85637991D01*
X145740199Y-85601254D01*
X145736063Y-85599942D01*
X145732236Y-85597890D01*
X145659305Y-85575593D01*
X145586631Y-85552539D01*
X145582317Y-85552055D01*
X145578166Y-85550786D01*
X145502284Y-85543078D01*
X145426526Y-85534580D01*
X145418050Y-85534521D01*
X145417881Y-85534504D01*
X145417723Y-85534519D01*
X145415000Y-85534500D01*
X145205911Y-85534500D01*
X145312840Y-85503029D01*
X145558854Y-85374417D01*
X145775201Y-85200469D01*
X145953641Y-84987812D01*
X146087378Y-84744546D01*
X146171317Y-84479937D01*
X146202261Y-84204063D01*
X146202400Y-84184203D01*
X146202400Y-83948142D01*
X146428997Y-83948142D01*
X146482949Y-84242104D01*
X146592971Y-84519988D01*
X146754872Y-84771210D01*
X146962486Y-84986200D01*
X147207904Y-85156770D01*
X147481779Y-85276423D01*
X147773679Y-85340602D01*
X148072486Y-85346861D01*
X148366817Y-85294962D01*
X148645462Y-85186883D01*
X148897808Y-85026739D01*
X149114243Y-84820631D01*
X149286522Y-84576410D01*
X149408084Y-84303377D01*
X149474299Y-84011932D01*
X149479065Y-83670564D01*
X149421014Y-83377384D01*
X149307123Y-83101063D01*
X149141730Y-82852127D01*
X148931135Y-82640056D01*
X148683359Y-82472929D01*
X148407840Y-82357112D01*
X148115072Y-82297015D01*
X147816208Y-82294929D01*
X147522630Y-82350932D01*
X147245520Y-82462891D01*
X146995435Y-82626542D01*
X146781899Y-82835652D01*
X146613047Y-83082255D01*
X146495309Y-83356959D01*
X146433170Y-83649299D01*
X146428997Y-83948142D01*
X146202400Y-83948142D01*
X146202400Y-83455797D01*
X146175311Y-83179518D01*
X146095074Y-82913762D01*
X145964747Y-82668653D01*
X145789293Y-82453525D01*
X145575396Y-82276574D01*
X145331202Y-82144539D01*
X145205088Y-82105500D01*
X149669500Y-82105500D01*
X149669500Y-108585000D01*
X148240750Y-108585000D01*
X148082000Y-108743750D01*
X148082000Y-110998000D01*
X148102000Y-110998000D01*
X148102000Y-111252000D01*
X148082000Y-111252000D01*
X148082000Y-113506250D01*
X148240750Y-113665000D01*
X149669500Y-113665000D01*
X149669500Y-119824500D01*
X132270500Y-119824500D01*
X132270500Y-115570164D01*
X132321300Y-115570164D01*
X132321300Y-118109836D01*
X132346696Y-118368848D01*
X132421918Y-118617993D01*
X132544100Y-118847784D01*
X132708587Y-119049466D01*
X132909116Y-119215358D01*
X133138048Y-119339141D01*
X133386663Y-119416100D01*
X133645490Y-119443304D01*
X133904673Y-119419716D01*
X134154338Y-119346236D01*
X134384976Y-119225661D01*
X134587801Y-119062585D01*
X134633376Y-119008271D01*
X134703037Y-119139285D01*
X134848726Y-119317917D01*
X135026337Y-119464850D01*
X135229105Y-119574487D01*
X135449307Y-119642650D01*
X135678554Y-119666745D01*
X135908116Y-119645853D01*
X136129248Y-119580771D01*
X136333527Y-119473976D01*
X136513172Y-119329538D01*
X136515591Y-119326655D01*
X136651937Y-119439450D01*
X136854705Y-119549087D01*
X137074907Y-119617250D01*
X137304154Y-119641345D01*
X137533716Y-119620453D01*
X137754848Y-119555371D01*
X137959127Y-119448576D01*
X138112900Y-119324940D01*
X138192639Y-119403266D01*
X138387413Y-119530906D01*
X138603346Y-119618095D01*
X138628870Y-119618228D01*
X138811000Y-119492731D01*
X138811000Y-118262400D01*
X138791000Y-118262400D01*
X138791000Y-118008400D01*
X138811000Y-118008400D01*
X138811000Y-117988400D01*
X139065000Y-117988400D01*
X139065000Y-118008400D01*
X139085000Y-118008400D01*
X139085000Y-118262400D01*
X139065000Y-118262400D01*
X139065000Y-119492731D01*
X139247130Y-119618228D01*
X139272654Y-119618095D01*
X139488587Y-119530906D01*
X139683361Y-119403266D01*
X139849491Y-119240080D01*
X139980593Y-119047620D01*
X139994869Y-119014009D01*
X140023787Y-119049466D01*
X140224316Y-119215358D01*
X140453248Y-119339141D01*
X140701863Y-119416100D01*
X140960690Y-119443304D01*
X141219873Y-119419716D01*
X141469538Y-119346236D01*
X141700176Y-119225661D01*
X141903001Y-119062585D01*
X142070289Y-118863219D01*
X142195667Y-118635158D01*
X142274360Y-118387086D01*
X142303370Y-118128455D01*
X142303500Y-118109836D01*
X142303500Y-115570164D01*
X142278104Y-115311152D01*
X142202882Y-115062007D01*
X142080700Y-114832216D01*
X141916213Y-114630534D01*
X141715684Y-114464642D01*
X141486752Y-114340859D01*
X141238137Y-114263900D01*
X140979310Y-114236696D01*
X140720127Y-114260284D01*
X140470462Y-114333764D01*
X140239824Y-114454339D01*
X140036999Y-114617415D01*
X139869711Y-114816781D01*
X139744333Y-115044842D01*
X139665640Y-115292914D01*
X139636630Y-115551545D01*
X139636500Y-115570164D01*
X139636500Y-116836825D01*
X139488587Y-116739894D01*
X139272654Y-116652705D01*
X139247130Y-116652572D01*
X139065002Y-116778068D01*
X139065002Y-116611400D01*
X139058422Y-116611400D01*
X139099742Y-116562157D01*
X139210791Y-116360159D01*
X139280490Y-116140438D01*
X139306185Y-115911365D01*
X139306300Y-115894874D01*
X139306300Y-115194326D01*
X139283806Y-114964916D01*
X139217181Y-114744244D01*
X139108963Y-114540715D01*
X138963274Y-114362083D01*
X138785663Y-114215150D01*
X138582895Y-114105513D01*
X138362693Y-114037350D01*
X138133446Y-114013255D01*
X137903884Y-114034147D01*
X137682752Y-114099229D01*
X137478473Y-114206024D01*
X137311404Y-114340351D01*
X137160063Y-114215150D01*
X136957295Y-114105513D01*
X136737093Y-114037350D01*
X136507846Y-114013255D01*
X136278284Y-114034147D01*
X136057152Y-114099229D01*
X135852873Y-114206024D01*
X135673228Y-114350462D01*
X135525058Y-114527043D01*
X135414009Y-114729041D01*
X135344310Y-114948762D01*
X135318615Y-115177835D01*
X135318500Y-115194326D01*
X135318500Y-115894874D01*
X135340994Y-116124284D01*
X135407619Y-116344956D01*
X135515837Y-116548485D01*
X135570410Y-116615398D01*
X135465484Y-116624947D01*
X135244352Y-116690029D01*
X135040073Y-116796824D01*
X134988300Y-116838450D01*
X134988300Y-115570164D01*
X134962904Y-115311152D01*
X134887682Y-115062007D01*
X134765500Y-114832216D01*
X134601013Y-114630534D01*
X134400484Y-114464642D01*
X134171552Y-114340859D01*
X133922937Y-114263900D01*
X133664110Y-114236696D01*
X133404927Y-114260284D01*
X133155262Y-114333764D01*
X132924624Y-114454339D01*
X132721799Y-114617415D01*
X132554511Y-114816781D01*
X132429133Y-115044842D01*
X132350440Y-115292914D01*
X132321430Y-115551545D01*
X132321300Y-115570164D01*
X132270500Y-115570164D01*
X132270500Y-110552615D01*
X134885135Y-110552615D01*
X134928886Y-110871595D01*
X135034026Y-111175911D01*
X135126941Y-111349742D01*
X135391290Y-111445445D01*
X136346735Y-110490000D01*
X135391290Y-109534555D01*
X135126941Y-109630258D01*
X134986102Y-109919787D01*
X134904455Y-110231229D01*
X134885135Y-110552615D01*
X132270500Y-110552615D01*
X132270500Y-109354950D01*
X135570895Y-109354950D01*
X136526340Y-110310395D01*
X136540483Y-110296253D01*
X136720088Y-110475858D01*
X136705945Y-110490000D01*
X136720088Y-110504143D01*
X136540483Y-110683748D01*
X136526340Y-110669605D01*
X135570895Y-111625050D01*
X135666598Y-111889399D01*
X135956127Y-112030238D01*
X136267569Y-112111885D01*
X136588955Y-112131205D01*
X136907935Y-112087454D01*
X137212251Y-111982314D01*
X137386082Y-111889399D01*
X137481784Y-111625052D01*
X137597453Y-111740721D01*
X137674014Y-111664160D01*
X137738610Y-111762189D01*
X137875260Y-111878655D01*
X138038947Y-111952440D01*
X138216710Y-111977702D01*
X139915970Y-111977702D01*
X140017091Y-111969638D01*
X140188604Y-111916524D01*
X140338529Y-111817730D01*
X140454995Y-111681080D01*
X140528780Y-111517393D01*
X140554042Y-111339630D01*
X140554042Y-111315500D01*
X143168066Y-111315500D01*
X143319500Y-111466933D01*
X143319500Y-113653812D01*
X143185435Y-113741542D01*
X142971899Y-113950652D01*
X142803047Y-114197255D01*
X142685309Y-114471959D01*
X142623170Y-114764299D01*
X142618997Y-115063142D01*
X142672949Y-115357104D01*
X142782971Y-115634988D01*
X142944872Y-115886210D01*
X143152486Y-116101200D01*
X143397904Y-116271770D01*
X143671779Y-116391423D01*
X143963679Y-116455602D01*
X144262486Y-116461861D01*
X144556817Y-116409962D01*
X144835462Y-116301883D01*
X145087808Y-116141739D01*
X145304243Y-115935631D01*
X145476522Y-115691410D01*
X145598084Y-115418377D01*
X145664299Y-115126932D01*
X145669065Y-114785564D01*
X145611014Y-114492384D01*
X145497123Y-114216063D01*
X145331730Y-113967127D01*
X145121135Y-113755056D01*
X144970500Y-113653451D01*
X144970500Y-111410750D01*
X145415000Y-111410750D01*
X145415000Y-113092542D01*
X145439403Y-113215223D01*
X145487270Y-113330785D01*
X145556763Y-113434789D01*
X145645211Y-113523237D01*
X145749215Y-113592730D01*
X145864777Y-113640597D01*
X145987458Y-113665000D01*
X147669250Y-113665000D01*
X147828000Y-113506250D01*
X147828000Y-111252000D01*
X145573750Y-111252000D01*
X145415000Y-111410750D01*
X144970500Y-111410750D01*
X144970500Y-111125000D01*
X144963061Y-111049138D01*
X144956413Y-110973148D01*
X144955201Y-110968977D01*
X144954778Y-110964660D01*
X144932740Y-110891666D01*
X144911465Y-110818436D01*
X144909468Y-110814584D01*
X144908213Y-110810426D01*
X144872412Y-110743095D01*
X144837323Y-110675401D01*
X144834613Y-110672007D01*
X144832576Y-110668175D01*
X144784385Y-110609086D01*
X144736810Y-110549490D01*
X144730857Y-110543453D01*
X144730751Y-110543324D01*
X144730631Y-110543225D01*
X144728717Y-110541284D01*
X144093717Y-109906283D01*
X144034774Y-109857867D01*
X143976380Y-109808869D01*
X143972575Y-109806777D01*
X143969222Y-109804023D01*
X143902023Y-109767991D01*
X143835199Y-109731254D01*
X143831063Y-109729942D01*
X143827236Y-109727890D01*
X143754305Y-109705593D01*
X143681631Y-109682539D01*
X143677317Y-109682055D01*
X143673166Y-109680786D01*
X143597284Y-109673078D01*
X143521526Y-109664580D01*
X143513050Y-109664521D01*
X143512881Y-109664504D01*
X143512723Y-109664519D01*
X143510000Y-109664500D01*
X140554042Y-109664500D01*
X140554042Y-109640370D01*
X140545978Y-109539249D01*
X140492864Y-109367736D01*
X140394070Y-109217811D01*
X140323258Y-109157458D01*
X145415000Y-109157458D01*
X145415000Y-110839250D01*
X145573750Y-110998000D01*
X147828000Y-110998000D01*
X147828000Y-108743750D01*
X147669250Y-108585000D01*
X145987458Y-108585000D01*
X145864777Y-108609403D01*
X145749215Y-108657270D01*
X145645211Y-108726763D01*
X145556763Y-108815211D01*
X145487270Y-108919215D01*
X145439403Y-109034777D01*
X145415000Y-109157458D01*
X140323258Y-109157458D01*
X140257420Y-109101345D01*
X140093733Y-109027560D01*
X139915970Y-109002298D01*
X138216710Y-109002298D01*
X138115589Y-109010362D01*
X137944076Y-109063476D01*
X137794151Y-109162270D01*
X137677685Y-109298920D01*
X137671287Y-109313113D01*
X137597453Y-109239279D01*
X137481784Y-109354948D01*
X137386082Y-109090601D01*
X137096553Y-108949762D01*
X136785111Y-108868115D01*
X136463725Y-108848795D01*
X136144745Y-108892546D01*
X135840429Y-108997686D01*
X135666598Y-109090601D01*
X135570895Y-109354950D01*
X132270500Y-109354950D01*
X132270500Y-107736231D01*
X147078374Y-107736231D01*
X147160727Y-107989289D01*
X147431418Y-108119086D01*
X147722230Y-108193580D01*
X148021988Y-108209908D01*
X148319171Y-108167443D01*
X148602359Y-108067816D01*
X148749273Y-107989289D01*
X148831626Y-107736231D01*
X147955000Y-106859605D01*
X147078374Y-107736231D01*
X132270500Y-107736231D01*
X132270500Y-90156988D01*
X132455092Y-90156988D01*
X132497557Y-90454171D01*
X132597184Y-90737359D01*
X132675711Y-90884273D01*
X132928769Y-90966626D01*
X133805395Y-90090000D01*
X132928769Y-89213374D01*
X132675711Y-89295727D01*
X132545914Y-89566418D01*
X132471420Y-89857230D01*
X132455092Y-90156988D01*
X132270500Y-90156988D01*
X132270500Y-89033769D01*
X133108374Y-89033769D01*
X133985000Y-89910395D01*
X134861626Y-89033769D01*
X134779273Y-88780711D01*
X134508582Y-88650914D01*
X134217770Y-88576420D01*
X133918012Y-88560092D01*
X133620829Y-88602557D01*
X133337641Y-88702184D01*
X133190727Y-88780711D01*
X133108374Y-89033769D01*
X132270500Y-89033769D01*
X132270500Y-84201000D01*
X132457928Y-84201000D01*
X132457928Y-85979000D01*
X132465992Y-86080121D01*
X132519106Y-86251634D01*
X132617900Y-86401559D01*
X132754550Y-86518025D01*
X132918237Y-86591810D01*
X133096000Y-86617072D01*
X134874000Y-86617072D01*
X134975121Y-86609008D01*
X135146634Y-86555894D01*
X135296559Y-86457100D01*
X135413025Y-86320450D01*
X135486810Y-86156763D01*
X135512072Y-85979000D01*
X135512072Y-84201000D01*
X135504008Y-84099879D01*
X135450894Y-83928366D01*
X135352100Y-83778441D01*
X135215450Y-83661975D01*
X135051763Y-83588190D01*
X134874000Y-83562928D01*
X133096000Y-83562928D01*
X132994879Y-83570992D01*
X132823366Y-83624106D01*
X132673441Y-83722900D01*
X132556975Y-83859550D01*
X132483190Y-84023237D01*
X132457928Y-84201000D01*
X132270500Y-84201000D01*
X132270500Y-82105500D01*
X136734089Y-82105500D01*
X136627160Y-82136971D01*
M02*
