M48
;DRILL file {KiCad 4.0.0-rc1-stable} date mar 10 nov 2015 21:40:51 CET
;FORMAT={-:-/ absolute / inch / decimal}
FMAT,2
INCH,TZ
T1C0.026
T2C0.028
T3C0.032
T4C0.039
%
G90
G05
M72
T2
X5.342Y-4.651
X5.374Y-4.549
X5.406Y-4.65
X5.438Y-4.549
X5.47Y-4.651
T3
X5.275Y-3.35
X5.275Y-3.5469
X5.275Y-3.725
X5.275Y-3.85
X5.275Y-3.975
X5.2781Y-4.125
X5.4Y-3.3
X5.4Y-3.6
X5.475Y-4.125
X5.5Y-3.3
X5.5Y-3.6
X5.6Y-3.3
X5.6Y-3.6
X5.675Y-3.725
X5.675Y-3.85
X5.675Y-3.975
X5.675Y-4.125
X5.675Y-4.525
X5.7Y-3.3
X5.7Y-3.6
X5.825Y-3.3
X5.825Y-3.7
X5.825Y-3.8
X5.825Y-4.2
T4
X5.3751Y-4.35
X5.4751Y-4.35
T1
X5.262Y-4.6345G85X5.262Y-4.5655
G05
X5.55Y-4.6345G85X5.55Y-4.5655
G05
T0
M30
